<svg xmlns="http://www.w3.org/2000/svg" width="435" height="93.68" viewBox="0 0 435 93.68"><defs><style>.cls-1 { fill: #f7c241; }</style></defs><title>email</title><path class="cls-1" d="M101.32 21.47a101.31 101.31 0 0 1-10.25 3.29 101.54 101.54 0 0 0-10.25 3.29q-.82 2.45-1.22 10.95a9.87 9.87 0 0 0 3.48.56 31.9 31.9 0 0 0 4.42-.47 32.06 32.06 0 0 1 4.42-.47 8.62 8.62 0 0 1 4.51 1.13 6.56 6.56 0 0 1 1.32 2.44 1.15 1.15 0 0 1-.66 1 11.16 11.16 0 0 0-1.32 1.32 2.15 2.15 0 0 1-1.88.75 39.67 39.67 0 0 1-7.24.56 21 21 0 0 0-7.05 1.13 47.11 47.11 0 0 0-1.79 11 10.28 10.28 0 0 0 .75 4.32q4.44 3.1 15.33 2.63a2.56 2.56 0 0 0 1.6-.71 2.45 2.45 0 0 1 1.41-.71q2.63-.56 3.48 3.95a3.74 3.74 0 0 1-.52 2.77 2.79 2.79 0 0 1-2.3 1.36 70.25 70.25 0 0 1-19.74-1.79 10 10 0 0 1-4.82-2.9 8.42 8.42 0 0 1-2.44-5.08 63.55 63.55 0 0 1 0-14.66q-2.63-1.78-2.35-3.48.09-.85 1.46-1.55t1.55-1.46q.19-.75.75-8.93-5.27-1-5.17-3.95.09-2.73 3.29-4.32l6-2.44a47.39 47.39 0 0 1 8.91-3.19q4.51-1.22 9.12-2.35a5.93 5.93 0 0 1 1.13-.09 12.18 12.18 0 0 1 5.92 2q.09.38.47 1.41a5.13 5.13 0 0 1 .38 1.5 1.44 1.44 0 0 1-.7 1.19zM149.73 70.07q.37 1.93-2.73 2.07a6.1 6.1 0 0 1-4.23-1.79 10.85 10.85 0 0 1-2.77-5.17 40.16 40.16 0 0 1-1.13-9.31 71.64 71.64 0 0 0-.66-9.31q-1.22 4.23-4 12.6-1.69 4.61-2.07 5.26-1.5 2.92-3.76 2.63a10.61 10.61 0 0 1-7-5.08 31.5 31.5 0 0 1-3-8.37 50.26 50.26 0 0 0-2.54-8.46q-4 19.65-8.65 29.33-.66 1.41-3.95-.19-2.73-1.32-2.73-3.76a32.83 32.83 0 0 1 2-6q.85-2.26 6.58-21.71 1.91-6.81 4.07-23.81a11.62 11.62 0 0 0 .94-2 1.71 1.71 0 0 1 1.69-1.32q3.19 0 4.42 1.22a68.07 68.07 0 0 0 .89 8.79 68.74 68.74 0 0 1 .89 9.17q.85 5.27 1.6 10.62a23.89 23.89 0 0 0 3.76 9.87q9-25.1 11.47-39.67.38-1.5 2.82-1.5 3.48 0 3.95 2.26a41.27 41.27 0 0 1 .66 7.8q0 1.41-.19 6.11-.1 3.95 0 6.39a209.07 209.07 0 0 0 3.67 33.33zM188.27 64a7.67 7.67 0 0 1 .56 2.63 4.27 4.27 0 0 1-1.6 3.29q-1.6 1.41-2.16 1.32-4.61-.85-5.83-7.43a72.52 72.52 0 0 0-3.1-11.94l-6.39.56a10.66 10.66 0 0 0-5.75 2.22 106.05 106.05 0 0 0-2.71 10.35 68.81 68.81 0 0 1-3.1 10.43q-.75 1.69-3.2.94-3.1-1-3.29-2.82-.28-3.55 2.07-9.55 2.82-6.86 3.1-9.78.09-.85-1.22-1.88t-1.32-1.6a1.59 1.59 0 0 1 .42-1 3.65 3.65 0 0 1 2-.85q1.55-.33 1.74-1 1.69-4.7 5.36-17.48a160.48 160.48 0 0 1 5.55-17 2.29 2.29 0 0 1 2.35-1.32 3.61 3.61 0 0 1 2.35.85 10.93 10.93 0 0 1 3.38 6.77q.56 3.86 1 7.71a298.46 298.46 0 0 0 9.79 36.58zm-13.73-18a60.15 60.15 0 0 0-1.22-7.8q-.94-3.76-1.79-7.52-2.82 7.8-4.89 15.6a62 62 0 0 1 7.9-.28zM202.27 20.91q.19 2.73.19 5.64 0 6.39-1.32 19.27t-1.32 19.46q0 2.44.09 4.79a3.38 3.38 0 0 1-3.67 2.54q-4-.19-4.42-3.48a61.25 61.25 0 0 1-.38-7 172.21 172.21 0 0 1 1.56-19.04 171.92 171.92 0 0 0 1.55-19q0-2.44-.19-4.79a3.32 3.32 0 0 1 3.2-1.79 7.08 7.08 0 0 1 3.57 1 1.13 1.13 0 0 1 .56-.28q.28 0 .28.94a4 4 0 0 0 0 1.32.6.6 0 0 0 .3.42zM234.7 57.59q-.19.09-11 7.84a65 65 0 0 1-11.19 6.71 2.51 2.51 0 0 1-1.13.28 3.09 3.09 0 0 1-2.44-1.7q-1.69-2.26-1.79-2.35-.19-8.28 1-23.07 1.41-15.72 1.41-22.69 0-4.8-.38-9a4.2 4.2 0 0 1 3.1-1.22q3.57 0 4.14 2.63.28 7.71-.66 23.08t-.75 23.08a46 46 0 0 0 6.86-3.95 64 64 0 0 1 6.72-4.23 12.1 12.1 0 0 0 1.65-.19 12.34 12.34 0 0 1 1.74-.19 2.89 2.89 0 0 1 2.73 1.51q1.12 2.05-.01 3.46zM307.18 70.07q.37 1.88-2.73 2.07a6.1 6.1 0 0 1-4.23-1.79 10.85 10.85 0 0 1-2.82-5.17 40.16 40.16 0 0 1-1.13-9.31 71.64 71.64 0 0 0-.66-9.31q-1.22 4.23-4 12.6-1.69 4.61-2.07 5.26-1.5 2.92-3.76 2.63a10.61 10.61 0 0 1-7-5.08 31.5 31.5 0 0 1-3-8.37 50.26 50.26 0 0 0-2.54-8.46q-4 19.65-8.65 29.33-.66 1.41-3.95-.19-2.73-1.32-2.73-3.76a32.83 32.83 0 0 1 2-6q.85-2.26 6.58-21.71 2-6.77 4.14-23.78a11.62 11.62 0 0 0 .94-2 1.71 1.71 0 0 1 1.69-1.32q3.19 0 4.42 1.22a68.07 68.07 0 0 0 .89 8.79 68.74 68.74 0 0 1 .89 9.17q.85 5.27 1.6 10.62a23.89 23.89 0 0 0 3.76 9.87q9-25.1 11.47-39.67.38-1.5 2.82-1.5 3.48 0 3.95 2.26a41.27 41.27 0 0 1 .66 7.8q0 1.41-.19 6.11-.1 3.95 0 6.39a209.07 209.07 0 0 0 3.65 33.3zM344.12 21.47a101.31 101.31 0 0 1-10.25 3.29 101.54 101.54 0 0 0-10.25 3.29q-.85 2.45-1.22 10.9a9.87 9.87 0 0 0 3.48.56 31.9 31.9 0 0 0 4.42-.47 32.06 32.06 0 0 1 4.42-.47 8.62 8.62 0 0 1 4.51 1.13 6.56 6.56 0 0 1 1.32 2.44 1.15 1.15 0 0 1-.66 1 11.16 11.16 0 0 0-1.32 1.32 2.15 2.15 0 0 1-1.88.75 39.67 39.67 0 0 1-7.24.56 21 21 0 0 0-7.05 1.13 47.11 47.11 0 0 0-1.79 11 10.28 10.28 0 0 0 .75 4.32q4.42 3.1 15.32 2.63a2.56 2.56 0 0 0 1.6-.71 2.45 2.45 0 0 1 1.41-.71q2.63-.56 3.48 3.95a3.74 3.74 0 0 1-.52 2.77 2.79 2.79 0 0 1-2.3 1.36 70.25 70.25 0 0 1-19.74-1.79 10 10 0 0 1-4.79-2.91 8.42 8.42 0 0 1-2.44-5.08 63.55 63.55 0 0 1 0-14.66q-2.63-1.78-2.35-3.48.09-.85 1.46-1.55t1.51-1.39q.19-.75.75-8.93-5.27-1-5.17-3.95.09-2.73 3.29-4.32l6-2.44a47.39 47.39 0 0 1 8.84-3.2q4.51-1.22 9.12-2.35a5.93 5.93 0 0 1 1.13-.09 12.18 12.18 0 0 1 5.92 2q.09.38.47 1.41a5.13 5.13 0 0 1 .38 1.5 1.44 1.44 0 0 1-.61 1.19zM357.75 70.35a4.64 4.64 0 0 1-.38 2.58q-.56 1.27-1.36 1.32a1.75 1.75 0 0 0-1.18.42.79.79 0 0 1-.75.28q-5-1.88-5.64-4.89-.28-1.32 1.79-2.68t2.91-1.27a6.09 6.09 0 0 1 3 1.32 4.1 4.1 0 0 1 1.61 2.92zm9.11-57.35q-.56 6.58-4.79 23.69-3.66 14.86-3.38 24.31a2 2 0 0 1-1 1.55 2.29 2.29 0 0 1-1.83.52q-4.79-.94-5.08-4.7-.09-2-.09-3.95a103.3 103.3 0 0 1 2.82-21.62q4.32-18.89 4.7-21.43a2 2 0 0 1 1.41-1.6 3.4 3.4 0 0 1 2.38-.05l3.2.94a2.32 2.32 0 0 1 1.66 2.34z"/></svg>