<?xml version="1.0" encoding="utf-8"?>
<!-- Generator: Adobe Illustrator 21.0.2, SVG Export Plug-In . SVG Version: 6.00 Build 0)  -->
<svg version="1.1" id="Layer_1" xmlns="http://www.w3.org/2000/svg" xmlns:xlink="http://www.w3.org/1999/xlink" x="0px" y="0px"
	 width="374.4px" height="127.4px" viewBox="0 0 374.4 127.4" style="enable-background:new 0 0 374.4 127.4;" xml:space="preserve"
	>
<style type="text/css">
	.st0{fill:#024626;}
</style>
<title>glasses</title>
<path class="st0" d="M274.1,126.9c-4.4-0.6-8.8-1.5-13.1-2.7c-30.8-9.8-55-45.3-52.8-76.3c0.2-3-2.1-8.7-3.5-8.8
	c-11.6-0.8-23.3-0.8-34.9-0.1c-1.4,0.1-3.6,5.9-3.4,8.9c2.4,33-26.5,71.5-59.2,78.3c-32.9,6.8-68.1-14.3-80.8-47.1
	c-6.3-16.3-14.5-32-22.6-47.5C-3,18.6-0.4,10.3,13.8,7C61.9-3.9,109-4,153.9,20.2c3.1,1.7,7.5,1.1,11.4,1.1
	c15,0.1,29.9,0.2,44.8,0.1c3.8,0,8.2,0.1,11.2-1.7C253.8,0,289.8-0.5,326,1.2c12.3,0.6,24.6,3.7,36.6,6.6
	c11.4,2.8,14.2,10.5,9.1,21.2c-8.8,18.7-17.6,37.3-26.1,56.2C334.1,110.8,308.1,127,274.1,126.9L274.1,126.9z M223.5,39.2
	c-11.2,29.1,8.2,81.7,53.3,81.8c42.5,0.2,72.4-29.6,71.9-72.3c-0.2-20.5-11.3-33.3-31.8-36.1c-5.2-0.7-20.3-0.3-25.6-0.3
	C291.4,12.3,233.2,13.9,223.5,39.2z M74.7,12.1c-3.1,0-6.2-0.1-9.3,0C35.5,13,20.8,31.7,27,60.9c1.4,6.5,3.3,12.9,5.8,19.1
	c11.9,30,43,46.3,75.9,40c26.2-5,45.5-31.8,45.4-62.9c-0.1-21.9-9.3-34.5-30.6-39C107.5,14.8,74.8,11.6,74.7,12.1z M295.6,18.8
	c0.9-0.3,1.9-0.6,2.9-0.8c0.9-0.2,2-0.4,3.4-0.6c1.3-0.2,2.8-0.3,4.4-0.4c3.8-0.1,7.5,0.2,11.2,1c1,0.2,2,0.5,3.1,0.8
	s2.1,0.7,3.1,1.1c2.1,0.9,4.1,1.9,6,3.2c1.9,1.3,3.7,2.7,5.3,4.4c1.5,1.6,2.9,3.4,4,5.3c0.5,0.9,1,1.8,1.4,2.8
	c0.4,0.9,0.8,1.8,1.1,2.8c0.6,1.7,1,3.5,1.3,5.2c0.2,1.5,0.3,3,0.3,4.5c0,1.1,0,2.3-0.1,3.4c-0.1,0.9-0.2,1.7-0.3,2.2l-0.1,0.8
	l-0.2-0.7c-0.1-0.5-0.4-1.2-0.6-2.1c-0.2-0.9-0.6-2-1-3.2l-0.3-0.9l-0.4-1l-0.8-2.1c-0.6-1.4-1.2-2.9-2.1-4.4
	c-0.4-0.8-0.8-1.5-1.3-2.2c-0.2-0.4-0.4-0.8-0.7-1.1l-0.8-1.1c-0.5-0.7-1.1-1.4-1.7-2.1c-0.3-0.4-0.6-0.7-1-1l-1-1
	c-1.4-1.3-2.8-2.5-4.4-3.5c-1.6-1.1-3.3-2-5-2.8s-3.5-1.5-5.3-2.1s-3.5-1.1-5.2-1.5s-3.3-0.8-4.8-1.1c-3-0.6-5.6-1-7.5-1.2l-2.1-0.3
	L295.6,18.8z M29.7,52.2c0.1-1,0.3-2,0.6-2.9c0.2-0.9,0.5-2,1-3.3s1-2.6,1.6-4.1c1.6-3.4,3.6-6.6,5.9-9.5c0.7-0.8,1.4-1.6,2.1-2.4
	c0.8-0.8,1.6-1.5,2.4-2.3c1.7-1.5,3.6-2.8,5.5-3.9c2-1.1,4.1-2,6.3-2.7c2.1-0.6,4.3-1,6.5-1.1c1-0.1,2.1-0.1,3.1,0c1,0,2,0.1,3,0.3
	c1.8,0.3,3.5,0.7,5.3,1.2c1.4,0.5,2.8,1.1,4.2,1.7c1,0.5,2,1,3,1.7c0.8,0.5,1.4,0.9,1.8,1.2l0.6,0.4l-0.8-0.1
	c-0.5-0.1-1.2-0.2-2.1-0.4c-0.9-0.2-2-0.3-3.3-0.6l-1-0.2c-0.3,0-0.7-0.1-1-0.1l-2.2-0.2c-1.5-0.1-3.1-0.2-4.8-0.1
	c-0.9,0-1.7,0.1-2.6,0.2c-0.4,0.1-0.9,0.1-1.3,0.1l-1.3,0.2c-0.9,0.1-1.8,0.4-2.7,0.6c-0.5,0.1-0.9,0.2-1.3,0.4l-1.3,0.4
	c-1.8,0.6-3.5,1.4-5.2,2.4c-1.7,0.9-3.3,2-4.8,3.2s-2.9,2.5-4.3,3.8c-1.3,1.3-2.6,2.6-3.7,4c-1.1,1.4-2.2,2.6-3.2,3.8
	c-1.9,2.4-3.4,4.6-4.5,6.1L30,51.8L29.7,52.2z"/>
</svg>
