<?xml version="1.0" encoding="utf-8"?>
<!-- Generator: Adobe Illustrator 21.0.0, SVG Export Plug-In . SVG Version: 6.00 Build 0)  -->
<svg version="1.1" id="Layer_1" xmlns="http://www.w3.org/2000/svg" xmlns:xlink="http://www.w3.org/1999/xlink" x="0px" y="0px"
	 width="256px" height="256px" viewBox="0 0 256 256" style="enable-background:new 0 0 256 256;" xml:space="preserve">
<style type="text/css">
	.st0{opacity:0.33;fill:#FFFFFF;}
	.st1{fill:#F6C13E;}
	.st2{opacity:0.5;fill:#FFFFFF;}
</style>
<title>sloth-bg</title>
<g>
	<path class="st0" d="M99.9-15.5l18.5-6.9l21.5-1l13.2,6.1v14.6l-3.4,9.5c0,0-0.1,2.8-4.9,8.3c-4.8,5.4-17.3,9.2-17.3,9.2h-10.7
		l-11.8-7L97.8,4.6v-14.9L99.9-15.5z"/>
	<path class="st0" d="M71.1-14.7l-18.5-6.9l-21.5-1l-13.2,6.1v14.6l3.4,9.5c0,0,0.1,2.8,4.9,8.3S43.6,25,43.6,25h10.7l11.8-7
		l7.2-12.6V-9.5L71.1-14.7z"/>
	<g>
		<g>
			<path class="st1" d="M120.7,25.7c-0.8-0.2-3.1-0.4-5.3-1.1c-12.6-4-22.4-18.4-21.5-31.1C93.9-7.7,93-10,92.4-10
				c-4.7-0.3-9.5-0.3-14.2,0c-0.6,0-1.5,2.4-1.4,3.6C77.8,7,66,22.7,52.6,25.4c-13.4,2.8-27.7-5.8-32.9-19.2
				c-2.6-6.6-5.9-13-9.2-19.3c-2.8-5.3-1.7-8.7,4.1-10c19.6-4.5,38.8-4.5,57,5.3c1.3,0.7,3.1,0.4,4.6,0.5c6.1,0.1,12.2,0.1,18.2,0
				c1.5,0,3.3,0,4.6-0.7c13.3-8,27.9-8.2,42.7-7.5c5,0.2,10,1.5,14.9,2.7c4.6,1.1,5.8,4.3,3.7,8.6c-3.6,7.6-7.2,15.2-10.6,22.9
				C145.1,19.2,134.5,25.8,120.7,25.7z M100-10c-4.6,11.9,3.3,33.3,21.7,33.3C139,23.4,151.2,11.3,151-6.1
				c-0.1-8.4-4.6-13.6-12.9-14.7c-2.1-0.3-8.3-0.1-10.4-0.1C127.7-21,104-20.3,100-10z M39.4-21c-1.3,0-2.5,0-3.8,0
				c-12.2,0.4-18.2,8-15.6,19.9c0.6,2.6,1.4,5.3,2.3,7.8c4.8,12.2,17.5,18.9,30.9,16.3c10.7-2,18.5-13,18.5-25.6
				c0-8.9-3.8-14-12.5-15.9C52.8-19.9,39.4-21.2,39.4-21z"/>
		</g>
		<g>
			<path class="st1" d="M129.4-18.3c2.2-0.7,4.6-0.9,7-0.7c2.4,0.3,4.8,1,6.8,2.4c1,0.7,2,1.5,2.8,2.5c0.8,1,1.4,2.1,1.8,3.2
				c0.9,2.3,1.1,4.7,0.6,7c-0.6-2.3-1.3-4.4-2.4-6.2c-1.1-1.8-2.5-3.4-4.2-4.5c-1.7-1.2-3.7-2-5.8-2.5
				C133.9-17.7,131.7-18,129.4-18.3z"/>
		</g>
		<g>
			<path class="st1" d="M21.1-4.7c0.3-2.3,1.3-4.5,2.6-6.5c1.3-2,3-3.8,5.2-5c1.1-0.6,2.3-1.1,3.5-1.3c1.2-0.2,2.5-0.3,3.7-0.2
				c2.4,0.3,4.7,1.2,6.6,2.6c-2.3-0.5-4.5-0.8-6.6-0.7c-2.1,0.1-4.1,0.7-5.9,1.8c-1.8,1-3.4,2.4-4.9,4.1C23.7-8.5,22.4-6.6,21.1-4.7
				z"/>
		</g>
	</g>
</g>
<title>sloth-bg</title>
<g>
	<path class="st2" d="M99.9,240.5l18.5-6.9l21.5-1l13.2,6.1v14.6l-3.4,9.5c0,0-0.1,2.8-4.9,8.3c-4.8,5.4-17.3,9.2-17.3,9.2h-10.7
		l-11.8-7l-7.2-12.6v-14.9L99.9,240.5z"/>
	<path class="st2" d="M71.1,241.3l-18.5-6.9l-21.5-1l-13.2,6.1v14.6l3.4,9.5c0,0,0.1,2.8,4.9,8.3c4.8,5.4,17.3,9.2,17.3,9.2h10.7
		l11.8-7l7.2-12.6v-14.9L71.1,241.3z"/>
	<g>
		<g>
			<path class="st1" d="M120.7,281.7c-0.8-0.2-3.1-0.4-5.3-1.1c-12.6-4-22.4-18.4-21.5-31.1c0.1-1.2-0.9-3.5-1.4-3.6
				c-4.7-0.3-9.5-0.3-14.2,0c-0.6,0-1.5,2.4-1.4,3.6c1,13.4-10.8,29.1-24.1,31.9c-13.4,2.8-27.7-5.8-32.9-19.2
				c-2.6-6.6-5.9-13-9.2-19.3c-2.8-5.3-1.7-8.7,4.1-10c19.6-4.5,38.8-4.5,57,5.3c1.3,0.7,3.1,0.4,4.6,0.5c6.1,0.1,12.2,0.1,18.2,0
				c1.5,0,3.3,0,4.6-0.7c13.3-8,27.9-8.2,42.7-7.5c5,0.2,10,1.5,14.9,2.7c4.6,1.1,5.8,4.3,3.7,8.6c-3.6,7.6-7.2,15.2-10.6,22.9
				C145.1,275.2,134.5,281.8,120.7,281.7z M100,246c-4.6,11.9,3.3,33.3,21.7,33.3c17.3,0.1,29.5-12.1,29.3-29.5
				c-0.1-8.4-4.6-13.6-12.9-14.7c-2.1-0.3-8.3-0.1-10.4-0.1C127.7,235,104,235.7,100,246z M39.4,235c-1.3,0-2.5,0-3.8,0
				c-12.2,0.4-18.2,8-15.6,19.9c0.6,2.6,1.4,5.3,2.3,7.8c4.8,12.2,17.5,18.9,30.9,16.3c10.7-2,18.5-13,18.5-25.6
				c0-8.9-3.8-14-12.5-15.9C52.8,236.1,39.4,234.8,39.4,235z"/>
		</g>
		<g>
			<path class="st1" d="M129.4,237.7c2.2-0.7,4.6-0.9,7-0.7c2.4,0.3,4.8,1,6.8,2.4c1,0.7,2,1.5,2.8,2.5c0.8,1,1.4,2.1,1.8,3.2
				c0.9,2.3,1.1,4.7,0.6,7c-0.6-2.3-1.3-4.4-2.4-6.2c-1.1-1.8-2.5-3.4-4.2-4.5c-1.7-1.2-3.7-2-5.8-2.5
				C133.9,238.3,131.7,238,129.4,237.7z"/>
		</g>
		<g>
			<path class="st1" d="M21.1,251.3c0.3-2.3,1.3-4.5,2.6-6.5c1.3-2,3-3.8,5.2-5c1.1-0.6,2.3-1.1,3.5-1.3c1.2-0.2,2.5-0.3,3.7-0.2
				c2.4,0.3,4.7,1.2,6.6,2.6c-2.3-0.5-4.5-0.8-6.6-0.7c-2.1,0.1-4.1,0.7-5.9,1.8c-1.8,1-3.4,2.4-4.9,4.1
				C23.7,247.5,22.4,249.4,21.1,251.3z"/>
		</g>
	</g>
</g>
<title>sloth-bg</title>
<g>
	<path class="st2" d="M180.9,112.5l18.5-6.9l21.5-1l13.2,6.1v14.6l-3.4,9.5c0,0-0.1,2.8-4.9,8.3c-4.8,5.4-17.3,9.2-17.3,9.2h-10.7
		l-11.8-7l-7.2-12.6v-14.9L180.9,112.5z"/>
	<path class="st2" d="M152.1,113.3l-18.5-6.9l-21.5-1l-13.2,6.1v14.6l3.4,9.5c0,0,0.1,2.8,4.9,8.3s17.3,9.2,17.3,9.2h10.7l11.8-7
		l7.2-12.6v-14.9L152.1,113.3z"/>
	<g>
		<g>
			<path class="st1" d="M201.6,153.7c-0.8-0.2-3.1-0.4-5.3-1.1c-12.6-4-22.4-18.4-21.5-31.1c0.1-1.2-0.9-3.5-1.4-3.6
				c-4.7-0.3-9.5-0.3-14.2,0c-0.6,0-1.5,2.4-1.4,3.6c1,13.4-10.8,29.1-24.1,31.9c-13.4,2.8-27.7-5.8-32.9-19.2
				c-2.6-6.6-5.9-13-9.2-19.3c-2.8-5.3-1.7-8.7,4.1-10c19.6-4.5,38.8-4.5,57,5.3c1.3,0.7,3.1,0.4,4.6,0.5c6.1,0.1,12.2,0.1,18.2,0
				c1.5,0,3.3,0,4.6-0.7c13.3-8,27.9-8.2,42.7-7.5c5,0.2,10,1.5,14.9,2.7c4.6,1.1,5.8,4.3,3.7,8.6c-3.6,7.6-7.2,15.2-10.6,22.9
				C226.1,147.2,215.5,153.8,201.6,153.7z M181,118c-4.6,11.9,3.3,33.3,21.7,33.3c17.3,0.1,29.5-12.1,29.3-29.5
				c-0.1-8.4-4.6-13.6-12.9-14.7c-2.1-0.3-8.3-0.1-10.4-0.1C208.6,107,184.9,107.7,181,118z M120.4,107c-1.3,0-2.5,0-3.8,0
				c-12.2,0.4-18.2,8-15.6,19.9c0.6,2.6,1.4,5.3,2.3,7.8c4.8,12.2,17.5,18.9,30.9,16.3c10.7-2,18.5-13,18.5-25.6
				c0-8.9-3.8-14-12.5-15.9C133.7,108.1,120.4,106.8,120.4,107z"/>
		</g>
		<g>
			<path class="st1" d="M210.4,109.7c2.2-0.7,4.6-0.9,7-0.7c2.4,0.3,4.8,1,6.8,2.4c1,0.7,2,1.5,2.8,2.5c0.8,1,1.4,2.1,1.8,3.2
				c0.9,2.3,1.1,4.7,0.6,7c-0.6-2.3-1.3-4.4-2.4-6.2c-1.1-1.8-2.5-3.4-4.2-4.5c-1.7-1.2-3.7-2-5.8-2.5
				C214.9,110.3,212.7,110,210.4,109.7z"/>
		</g>
		<g>
			<path class="st1" d="M102.1,123.3c0.3-2.3,1.3-4.5,2.6-6.5c1.3-2,3-3.8,5.2-5c1.1-0.6,2.3-1.1,3.5-1.3c1.2-0.2,2.5-0.3,3.7-0.2
				c2.4,0.3,4.7,1.2,6.6,2.6c-2.3-0.5-4.5-0.8-6.6-0.7c-2.1,0.1-4.1,0.7-5.9,1.8c-1.8,1-3.4,2.4-4.9,4.1
				C104.7,119.5,103.3,121.4,102.1,123.3z"/>
		</g>
	</g>
</g>
</svg>
