<svg xmlns="http://www.w3.org/2000/svg" width="5.2in" height="1.77in" viewBox="0 0 374.72 127.72"><defs><style>.cls-1 { fill: #fff; } .cls-2 { fill: #f7c241; }</style></defs><title>glasses</title><path class="cls-1" d="M223.49 25.64l45.5-17 53-2.5 32.5 15v36l-8.33 23.32s-.37 7-12.17 20.35l-42.67 22.67h-26.32l-29-17.33-17.67-31v-36.67zM152.69 27.59l-45.5-17-53-2.5-32.5 15v36l8.31 23.32s.37 7 12.17 20.35l42.67 22.67h26.33l29-17.33 17.67-31v-36.68z"/><path class="cls-2" d="M274.5 127.17a94.79 94.79 0 0 1-13.16-2.74c-30.89-9.87-55.11-45.35-52.9-76.45.21-3-2.11-8.72-3.54-8.81a282.45 282.45 0 0 0-35-.12c-1.37.08-3.63 5.92-3.41 8.93 2.42 33.07-26.57 71.64-59.36 78.44-33 6.85-68.23-14.29-80.95-47.19-6.31-16.32-14.48-32-22.6-47.52-6.78-13.05-4.24-21.35 10.05-24.61 48.14-10.98 95.37-11.1 140.37 13.11 3.1 1.67 7.56 1.07 11.39 1.11 15 .15 29.92.25 44.88.12 3.78 0 8.23.11 11.24-1.71 32.62-19.73 68.7-20.21 104.93-18.53 12.33.57 24.66 3.66 36.73 6.66 11.39 2.83 14.19 10.49 9.14 21.28-8.77 18.74-17.66 37.43-26.16 56.3-11.54 25.64-37.59 41.86-71.65 41.73zm-50.78-87.89c-11.2 29.2 8.19 81.84 53.43 82 42.56.16 72.58-29.7 72.09-72.5-.23-20.57-11.34-33.41-31.82-36.14-5.25-.7-20.33-.34-25.68-.34 0 .01-58.3 1.62-68.02 26.98zm-149.1-27.17c-3.12 0-6.24-.08-9.35 0-29.92.96-44.69 19.61-38.47 48.89a120.47 120.47 0 0 0 5.77 19.14c11.88 30.1 43.07 46.44 76.06 40.12 26.22-5 45.62-31.9 45.52-63-.07-21.93-9.34-34.57-30.65-39.07-16.04-3.38-48.81-6.52-48.88-6.08zM296 18.81a22.87 22.87 0 0 1 2.86-.82c.92-.2 2.05-.45 3.36-.62s2.8-.32 4.43-.4a44.32 44.32 0 0 1 11.21 1c1 .23 2.05.48 3.08.82s2.07.7 3.11 1.1a34.26 34.26 0 0 1 6 3.17 31.85 31.85 0 0 1 5.27 4.4 29.51 29.51 0 0 1 4 5.32 21.6 21.6 0 0 1 1.45 2.8 21.43 21.43 0 0 1 1.09 2.79 34.46 34.46 0 0 1 1.29 5.25 36.23 36.23 0 0 1 .35 4.49 28.37 28.37 0 0 1-.12 3.43c-.08.94-.2 1.68-.26 2.18l-.12.76-.23-.75c-.13-.49-.36-1.19-.58-2.09s-.62-2-1-3.17l-.28-.93-.37-1-.77-2.06c-.63-1.39-1.24-2.9-2.09-4.38a21.8 21.8 0 0 0-1.31-2.24c-.25-.37-.45-.76-.72-1.12l-.8-1.08c-.51-.75-1.14-1.42-1.73-2.13a10.27 10.27 0 0 0-1-1l-1-1a34.46 34.46 0 0 0-4.39-3.53 38.37 38.37 0 0 0-5-2.84 56 56 0 0 0-5.29-2.14c-1.77-.6-3.52-1.13-5.21-1.55s-3.32-.78-4.83-1.1c-3-.59-5.64-1-7.48-1.24l-2.15-.27zM29.52 52.29a22.86 22.86 0 0 1 .56-2.92c.24-.91.52-2 1-3.28s1-2.64 1.64-4.14a44.32 44.32 0 0 1 5.95-9.56c.66-.81 1.36-1.61 2.13-2.38s1.56-1.53 2.38-2.28a34.27 34.27 0 0 1 5.54-3.93 31.84 31.84 0 0 1 6.28-2.72 29.5 29.5 0 0 1 6.55-1.15 21.59 21.59 0 0 1 3.15 0 21.44 21.44 0 0 1 3 .28 34.48 34.48 0 0 1 5.27 1.21 36.25 36.25 0 0 1 4.16 1.71 28.36 28.36 0 0 1 3 1.66c.81.5 1.41.94 1.83 1.22l.63.45-.77-.13c-.49-.1-1.23-.22-2.13-.42s-2-.33-3.27-.56l-1-.17c-.33 0-.68-.07-1-.11l-2.18-.24c-1.52-.06-3.15-.2-4.85-.11a21.81 21.81 0 0 0-2.59.16c-.44.06-.88.06-1.32.14l-1.33.22c-.9.12-1.78.38-2.68.58a10.27 10.27 0 0 0-1.33.4l-1.34.42a34.46 34.46 0 0 0-5.17 2.36 38.37 38.37 0 0 0-4.8 3.19 56 56 0 0 0-4.3 3.81c-1.33 1.31-2.6 2.63-3.74 4s-2.2 2.61-3.16 3.82c-1.9 2.45-3.42 4.59-4.48 6.11l-1.21 1.79z"/></svg>