<svg id="Layer_1" data-name="Layer 1" xmlns="http://www.w3.org/2000/svg" width="550" height="122.12" viewBox="0 0 550 122.12">
  <defs>
    <style>
      .cls-1, .cls-2 {
        fill: #f7c241;
      }

      .cls-2 {
        font-size: 72px;
        font-family: KingBasilLite-Regular, King Basil Lite;
      }

      .cls-3 {
        fill: none;
      }
    </style>
  </defs>
  <title>handlettering</title>
  <g>
    <path class="cls-1" d="M197.55,58c3.43-9.73,7.53-5.69,7.89-4.36,1.16,4.4-.58,7.69-.42,10.89-.74,4.65,4.82,6.43,6.72-14,0,0,.61.06.68.23a2.53,2.53,0,0,1,.23.71c-2,21.65-9,17.39-9.4,17.23-2.36-1.23-1.23-9.76-.74-13.06.13-2.59-.71-2.71-.87-2.33-1.55.78-3.81,4.85-3.78,7.95.29,1.78-.39,2.81-1.2,2.42s-2.2-.9-2.23-2.17c-1.1-14.93.32-17.74.74-20.17,1.84-7.14,3.36-8.47,4-9.27,3.62-4.49,7.08,1,6.62,5.95-.65,8.82-6.3,10.24-7.92,12.51C197.68,51.84,197.52,56.59,197.55,58Zm.32-9c1.1-2,6.2-3.1,6.72-10.92.26-7.24-2.81-5.91-3.2-5.27C198.2,38.82,198.2,48,197.88,49.06Z"/>
    <path class="cls-1" d="M219.33,51.91c-.29-5.3-1.65-4.3-1.65-4.3-3.49,3.46-3.78,12-2.84,12,1.1-.06,2.59-2,2.84-3.43.52-2.71,1.39-3.07,2-2.49a2.34,2.34,0,0,1,1.16,2.55c-.74,5.78.42,5.4.81,5.17,1.84-1.1,4.4-5.07,5.75-10.86,0,0,.42-.52.71-.1.48.26.29.9.29.9-2.59,10.24-6.11,10.66-7,11.54-3.3,1.45-3.52-3.17-3.85-3.88-2,2.39-4.07,2.26-4.65,1.94-4.3-.68-1.65-13.06,1.87-14.64,4.3-1.94,5.59,4.07,5.36,5.17Z"/>
    <path class="cls-1" d="M247.38,51.45c-3.3,17.45-8.08,15.77-8.92,14.41-2.42-2.46-2.65-9.34-2.39-11.6,0-1.81,2-8.89.26-7.66-2.68,2.36-4.88,9.08-5.2,9.66.58,2.13,0,2.52-.52,2.62-2.49.39-2.68-1.13-2.94-2a23.49,23.49,0,0,1,.42-10c0-.58,1-.87,1.33-.61,1.23.71,2.36,1.29,2.1,2.71a35.83,35.83,0,0,0-.48,4.49,18.68,18.68,0,0,1,4.49-7.66c1.49-1.49,4.65.45,5,2.55a27.72,27.72,0,0,1-.45,6.82c-1,6,0,8.43.23,8.69.65.71,2.75,1.94,6.24-13.28a2.7,2.7,0,0,1,.65.16A1.7,1.7,0,0,1,247.38,51.45Z"/>
    <path class="cls-1" d="M259.89,65.64c.84-.39,3-4.65,5.49-15.19,0,0,.52-.1.58,0,.29.16.29.94.29.94-3.81,16.22-6.2,17.42-9.47,15.71-2.36-1.49-2.17-6.4-2.62-7.89-2.17,5.11-5.62,3.26-6.11,2.88-3.26-2-2.68-11.47-.71-13s4.23-1.16,6.46-.55c.39-13.31,3.91-15.19,4.65-16.16,4.88-4.72,5.2,3.13,4.14,7.27-2.29,8.6-3.46,10.37-4.85,13C257.6,62.73,258.63,66.22,259.89,65.64Zm-9-4.62c1.49.16,3-2.78,3.07-3.49.1-2.42-.19-6.37-.19-7.56C247.12,48.74,248.58,60.76,250.91,61Zm6.5-10.12s1.49-2.62,3.75-11.34c1.52-7.63-.71-7.4-1.07-6.72C257.4,39.46,257.34,50.32,257.4,50.9Z"/>
    <path class="cls-1" d="M280.7,65.74c1.45,0,4.85-3.62,6.79-15.16,0,0,.61,0,.68.16a1.88,1.88,0,0,1,.19.74c-2.71,17.35-9,16.35-9.89,15.48A7.7,7.7,0,0,1,276,63.18c-2.29-9.89-.52-22.3.32-25.3,2.1-8.56,7-7.43,8.21-6.08,2.75,3.26-1,13.93-5.72,18.45C278.73,51.94,278.7,65.41,280.7,65.74Zm-2-17.13s4.52-4.1,5.36-13.12c.36-3.91-1.49-4.2-2-3C280.54,34.29,279,45.47,278.73,48.61Z"/>
    <path class="cls-1" d="M287.9,58.56c-1.62-3.75-1.29-12.44,4.69-12.44,1.2.06,3.33-.06,3.59,2.36a5,5,0,0,1-4.91,5.3c.13,5.14,1.87,4.78,2.65,5.27.78.32,4.33-.16,7-8.4,0,0,.52-.1.61.06a1.27,1.27,0,0,1,.1.71C298.34,63.77,289.2,61,287.9,58.56Zm3.26-6c1.58-.13,3.17-.48,3.55-3.55-.1-1.87-1.32-1.91-1.87-1.52C291.88,48.71,291.49,49.93,291.17,52.58Z"/>
    <path class="cls-1" d="M297.86,42.15a5,5,0,0,1,3.68.42c.23-.74,1.42-11.83,6.27-11.54a1.55,1.55,0,0,1,1.52.78c1.75,2.88-3.07,12-3.55,12.73,1.84.94,7.72,1.2,10.21-2.39,1-.65.61.94.61.94-1.84,3.46-10.18,3.94-11.21,2.84-1,8.85-.1,16.55,1.13,18,1.39,1.32,5.95,2,8.4-13.25,0,0,.13-.48.65-.19s.39,1,.39,1c-3.75,23-12.57,13.57-13.48,11.63-3-6.72-1.36-16.42-1.13-19.13a8,8,0,0,0-3-.78C296.4,43.37,297.86,42.15,297.86,42.15Zm10.34-9.73c-1-.68-1.49,1-1.49,1-.94,2.91-1.1,7.63-1.23,9.08C305.26,42.79,310.07,34.42,308.2,32.42Z"/>
    <path class="cls-1" d="M311.88,42.15a5,5,0,0,1,3.68.42c.23-.74,1.42-11.83,6.27-11.54a1.55,1.55,0,0,1,1.52.78c1.75,2.88-3.07,12-3.55,12.73,1.84.94,7.72,1.2,10.21-2.39,1-.65.61.94.61.94-1.84,3.46-10.18,3.94-11.21,2.84-1,8.85-.1,16.55,1.13,18,1.39,1.32,5.95,2,8.4-13.25,0,0,.13-.48.65-.19s.39,1,.39,1c-3.75,23-12.57,13.57-13.48,11.63-3-6.72-1.36-16.42-1.13-19.13a8,8,0,0,0-3-.78C310.43,43.37,311.88,42.15,311.88,42.15Zm10.34-9.73c-1-.68-1.49,1-1.49,1-.94,2.91-1.1,7.63-1.23,9.08C319.28,42.79,324.1,34.42,322.22,32.42Z"/>
    <path class="cls-1" d="M329.43,58.56c-1.62-3.75-1.29-12.44,4.69-12.44,1.2.06,3.33-.06,3.59,2.36a5,5,0,0,1-4.91,5.3c.13,5.14,1.87,4.78,2.65,5.27.78.32,4.33-.16,7-8.4,0,0,.52-.1.61.06a1.27,1.27,0,0,1,.1.71C339.87,63.77,330.72,61,329.43,58.56Zm3.26-6c1.58-.13,3.17-.48,3.55-3.55-.1-1.87-1.32-1.91-1.87-1.52C333.4,48.71,333,49.93,332.69,52.58Z"/>
    <path class="cls-1" d="M357.87,50.77s.23-.39.74,0,.23.84.23.84C356.93,64,354.34,65.25,353,66a3.92,3.92,0,0,1-5.17-1c-2.13-3.75-.42-9.63.1-11.44a5.5,5.5,0,0,1-5.85-1.26c-1-1.87-1.78-3.17-1.16-5.43.74-2.1,2.55-2.71,3.68-1.78,1.78,1.49-.06,3.78-.91,5.62.71,2,4.17,1.42,5.2.65,1.36-.84,3-.26,2.91,1.49a32.29,32.29,0,0,1-.68,5.53c-.84,6.24.87,6.4.87,6.4C355.6,65.28,357.87,50.77,357.87,50.77Zm-15.09-1.13c.87-2,1.42-2.52,1.16-3.46,0,0-.48-1.07-1.42,0A3.45,3.45,0,0,0,342.77,49.64Z"/>
    <path class="cls-1" d="M368.43,50.39s.52,0,.58.06a2.23,2.23,0,0,1,.19.84c-1.33,10.6-5,14.67-9.47,13.51C356.09,63.7,358,50,358.19,49.22a1.5,1.5,0,0,1,2-1.07c1.52,1,1.84,2.13,1.65,2.88a78.78,78.78,0,0,0-.9,9.73C360.74,64.83,366.17,65.87,368.43,50.39Zm-5.66-6.53c-.16.61-.13,1.52-.42,1.84s-2.55-.23-2.59-.55c-1.13-2.1.19-2.91.19-2.91C360.71,42.37,362.65,42.89,362.78,43.86Z"/>
    <path class="cls-1" d="M388.47,51.45c-3.3,17.45-8.08,15.77-8.92,14.41-2.42-2.46-2.65-9.34-2.39-11.6,0-1.81,2-8.89.26-7.66-2.68,2.36-4.88,9.08-5.2,9.66.58,2.13,0,2.52-.52,2.62-2.49.39-2.68-1.13-2.94-2a23.49,23.49,0,0,1,.42-10c0-.58,1-.87,1.32-.61,1.23.71,2.36,1.29,2.1,2.71a35.83,35.83,0,0,0-.48,4.49,18.68,18.68,0,0,1,4.49-7.66c1.49-1.49,4.65.45,5,2.55a27.72,27.72,0,0,1-.45,6.82c-1,6,0,8.43.23,8.69.65.71,2.75,1.94,6.24-13.28a2.7,2.7,0,0,1,.65.16A1.71,1.71,0,0,1,388.47,51.45Z"/>
    <path class="cls-1" d="M394.12,56.53c.65-3.3.39-3.59.65-4.33s.68-.78,1.32-.26c1.07.87,2,1.62,1.62,3.23a26.25,26.25,0,0,0-.19,2.88c.26,0,4.69-1.68,6.3-7.4a1,1,0,0,1,.65.06c.29.23.13.78.13.78-1.94,7-6.59,7.34-7.24,8.11-.55,2.52-.36,4.59-1.52,11.67S389,76,388.47,75.56c-3.91-3.52-.13-12,5.14-15.38a11.29,11.29,0,0,0,.26-2.39c-4.62.71-6.24-.78-6.88-2.75-1.75-6.2,1.42-9.79,3.43-11.21,4.3-2.91,9.47.45,7.59,4.82,0,.32-.52.48-.94,0,.48-4-1-4.36-2.46-4.52C390.76,44.15,387.72,57.3,394.12,56.53ZM393.41,62s-6.11,5.72-5,11.25c.58,1.52,2.36,1.87,2.78,1.36C393.44,72.2,393.25,63,393.41,62Z"/>
  </g>
  <text class="cls-2" transform="translate(159.37 99.94)">&amp;</text>
  <circle class="cls-3" cx="22.29" cy="59.21" r="10.29"/>
</svg>
