<svg xmlns="http://www.w3.org/2000/svg" width="200" height="200" viewBox="0 0 200 200"><defs><style>.cls-1 { fill: #fff; }</style></defs><title>social-media</title><path class="cls-1" d="M52.23 126.73h8.92c2.57 0 5.14.08 7.71 0a34.25 34.25 0 0 0 5.67-.65c2.6-.55 5-1.63 6.27-4.2a11.2 11.2 0 0 0 .85-6.89c-.54-3.18-2.22-5.45-5.48-6.13a41.25 41.25 0 0 0-7.17-1c-5.65-.16-11.31-.05-17-.1-.89 0-1 .35-1 1.11v16.75c0 .9.35 1.12 1.23 1.11zM124.86 153.23c1.13 6.87 6 11.25 13 11.77a16.54 16.54 0 0 0 8.41-1.18 10.3 10.3 0 0 0 4.93-4.39 2.37 2.37 0 0 1 2.4-1.43c3.07.05 6.14 0 9.22 0a86.64 86.64 0 0 0 6.4-8.21h-.76l-42.78.09h-1.19c.13 1.12.2 2.29.37 3.35zM51 162.74c0 .33 0 .26.06 1.26h1.32c3 0 6-.07 9-.11 4-.05 7.93-.1 11.89-.33a10.36 10.36 0 0 0 7.5-3.48c2.64-3 2.93-6.69 2.55-10.48a8.83 8.83 0 0 0-7.24-7.85 37.93 37.93 0 0 0-7-.82c-5.62-.11-11.24 0-16.86-.06-1 0-1.31.32-1.3 1.34.14 6.79.08 13.7.08 20.53zM98.51 16h-2.42c-47.14 0-85.71 38.51-85.71 85.65h.17a85.24 85.24 0 0 0 21 55.83v-64.73a9.63 9.63 0 0 0 1.25.07h39.16a36.82 36.82 0 0 1 14.1 2.38c5.47 2.24 9.53 6 11.43 11.62 2.07 6.16 2.08 12.36-.87 18.32a15.71 15.71 0 0 1-6.56 6.5l-1.6.93c1.26.63 2.38 1.12 3.44 1.73 5.89 3.33 8.72 8.64 9.49 15.15a25.86 25.86 0 0 1-3.66 17.12 23 23 0 0 1-11.28 9.6c-5.58 2.19-11.45 2.5-17.33 2.52l-10.37-.14a84.82 84.82 0 0 0 37.34 8.45h2.42a84.79 84.79 0 0 0 38.49-9.09 33.07 33.07 0 0 1-19.24-7.33 23.56 23.56 0 0 1-8.17-13.58 47.57 47.57 0 0 1 .49-24.07 26.48 26.48 0 0 1 10.09-14.44c6-4.36 12.74-5.84 20-5.6a32.36 32.36 0 0 1 15.4 4.06 25.92 25.92 0 0 1 9 8.91 32.17 32.17 0 0 1 4.75 15.22l.35 1.06v7.54a88 88 0 0 0 14.75-48.11l-.07.06c-.06-47.12-38.7-85.63-85.84-85.63zm57.4 88.1a1.24 1.24 0 0 1-.6.72 2 2 0 0 1-.76.18h-33v-9h34.34c.05 3 .06 5.5.02 8.1zM138.69 126c-9.1-.06-13 7-13.62 13h27.39c-.05-7-5.29-13-13.77-13z"/></svg>