<svg xmlns="http://www.w3.org/2000/svg" width="200" height="200" viewBox="0 0 200 200"><defs><style>.cls-1 { fill: #fff; }</style></defs><title>social-media</title><path class="cls-1" d="M123.14 133.71a11.19 11.19 0 0 0-14.56 8.87 20 20 0 0 0 0 3l.2 42.22v1.1a90.92 90.92 0 0 0 22.26-4.9c0-13.07-.1-26.13-.11-39.2a11.09 11.09 0 0 0-7.79-11.09zM101.51 18h-2.42c-47.14 0-85.71 38.46-85.71 85.61l-.09-.05a86.15 86.15 0 0 0 38.51 71.44v-64h23v74.58a58.64 58.64 0 0 0 11 2.61v-77.19h23v12.91c0 .05 0 .11.13.16.73-.9 1.35-1.79 2.07-2.7a33.9 33.9 0 0 1 9.66-8.65c5.07-2.91 10.32-2.73 15.52-.68 9.75 3.86 15 11.44 16.84 21.5a39 39 0 0 1 .53 7c0 10.29-.18 20.59-.19 30.88a85.5 85.5 0 0 0 33.44-67.92v.11c0-47.15-38.15-85.61-85.29-85.61zm-38 81.26a11.28 11.28 0 1 1 11.03-11.49 11.31 11.31 0 0 1-11.07 11.49z"/></svg>