<svg xmlns="http://www.w3.org/2000/svg" width="200" height="200" viewBox="0 0 200 200"><defs><style>.cls-1 { fill: #fff; }</style></defs><title>social-media</title><path class="cls-1" d="M140 97h-9a5.11 5.11 0 0 0-4.77 5.05v9a4.61 4.61 0 0 0 4.67 4.62h9.12a4.56 4.56 0 0 0 4.6-4.53v-9.4a4.71 4.71 0 0 0-4.62-4.74zM100 16h-2.41c-47.14 0-85.71 38.51-85.71 85.65h-.16a86.18 86.18 0 0 0 38.48 71.46v-46.43c1 0 .71.32.91.32h29.15c-.19 0-.3.22-.41.36s-.23.2-.34.35a19.53 19.53 0 0 0-3.59 9.65 34.78 34.78 0 0 0-.07 8.07 20.77 20.77 0 0 0 .65 4 27.06 27.06 0 0 0 3.86 7.75c5.19 7.26 12.34 10.84 21.18 11.09a24.38 24.38 0 0 0 6.09-.78 25.9 25.9 0 0 0 15.56-9.88 25.37 25.37 0 0 0 5.34-16.6 26.71 26.71 0 0 0-4.65-13.86c-.05-.08-.09-.14-.13-.14h29.45v.37c0 13.63.24 27.26.25 40.89a85.75 85.75 0 0 0 32.15-66.67l.06.06a85.86 85.86 0 0 0-85.66-85.66zm1.92 145.86a20.29 20.29 0 1 1 20.44-20.27 20.29 20.29 0 0 1-20.43 20.27zm51.58-41.17c0 .76-.05 1.31-.08 2.31h-32.42a1.22 1.22 0 0 1-.72-.27 36.08 36.08 0 0 0-5.92-4.08 24.82 24.82 0 0 0-15.51-3 29.91 29.91 0 0 0-15.14 6.85 1.82 1.82 0 0 1-1.32.49c-3.46-.11-6.91-.18-10.37-.26l-13.2-.3-8.58-.2v-16l.23-.39c.19-1.34.36-2.71.67-4a12.38 12.38 0 0 1 4.39-7.14 13.81 13.81 0 0 1 3.71-1.8v21.1h4v.06c0-3.82.06-7.64.07-11.46v-11.829999999999998c0-.11.09-.28.17-.31.87-.28 1.75-.74 2.68-1 .1 8.28.19 16.57.29 24.57h4v-25h2.81a1.71 1.71 0 0 0 0 .25c0 4.43-.08 8.82-.06 13.24l-.09 11.48v.61c2-.07 3-.13 4-.19v-25.42h55.26a23.66 23.66 0 0 1 5 .33 19.26 19.26 0 0 1 12.63 8.6 21.74 21.74 0 0 1 3.52 12.43c.06 3.45.04 6.89-.01 10.33zM102.4 126.22a15.35 15.35 0 1 0 15 15.71 15.35 15.35 0 0 0-15-15.71z"/></svg>