<svg xmlns="http://www.w3.org/2000/svg" width="435" height="105.31" viewBox="0 0 435 105.31"><defs><style>.cls-1 { fill: #f7c241; } .cls-2 { fill: #fff; }</style></defs><title>wordmark</title><path class="cls-1" d="M353.62 34.33s8-8-7.89-24.07a.73.73 0 0 0-1.29.34c-5.29 23.73 9.18 23.72 9.18 23.72"/><path class="cls-2" d="M347.26 18.93l.14.56c0 .18.09.4.13.65s.13.52.19.81c.12.58.31 1.26.5 2l.33 1.09c.14.36.23.75.38 1.11.27.74.56 1.47.86 2.14s.61 1.3.89 1.84c.55 1.07 1 1.81 1 1.81a6.67 6.67 0 0 1-1.68-1.33 9 9 0 0 1-.68-.78 9.83 9.83 0 0 1-.66-.95 11.44 11.44 0 0 1-1.1-2.26 12.56 12.56 0 0 1-.37-1.22c-.11-.41-.15-.82-.23-1.22a10.43 10.43 0 0 1-.09-1.15 6.7 6.7 0 0 1 0-1 7.47 7.47 0 0 1 .23-1.51l.16-.59z"/><path class="cls-1" d="M12.55 54.58c-5-11.74-2.25-14.64.54-16.35 5.41-3.33 8.68 2.84 4.07 10.77 1.23 3.11 5.68 10.13 6.17 10.94.59-.27 6.22-2.31 10.56-9.71a1 1 0 0 1 1.23-.16c.7.43.16 1.29.16 1.29-3.48 6.81-9 9.38-10.88 11a18.2 18.2 0 0 1 2.25 7.83c1.02 8.81-7.65 9.16-9.92 8.81-4-.54-12.92-5.52.38-15-1.02-2.72-3.76-7.65-4.56-9.42zm5.45 11.85c-10.71 5.79-4.49 10.3 0 10.57 5.65.48 1.46-6.92 0-10.57zm-1.91-19.89c1.23-2.68 1.29-2.79 1.07-5-.54-3.06-1.72-1.82-2.36-1.34-1.13 2.59.64 4.8 1.29 6.34zM46.54 52.33c-.48-8.79-2.73-7.13-2.73-7.13-5.81 5.74-6.28 19.8-4.72 19.94 1.82-.11 4.29-3.32 4.72-5.68.86-4.5 2.31-5.09 3.27-4.13 1.5 1.13 2.47 2.63 1.93 4.24-1.23 9.6.7 9 1.34 8.58 3.06-1.82 7.29-8.42 9.54-18 0 0 .7-.86 1.18-.16.8.43.48 1.5.48 1.5-4.29 16.98-10.13 17.68-11.55 19.12-5.47 2.41-5.84-5.25-6.38-6.43-3.32 4-6.76 3.75-7.72 3.22-7.16-1.13-2.76-21.67 3.1-24.29 7.13-3.22 9.28 6.76 8.9 8.58zM70.72 60c1.07-5.47.64-6 1.07-7.19s1.13-1.29 2.2-.43c1.77 1.45 3.38 2.68 2.68 5.36a43.3 43.3 0 0 0-.32 4.77c.43-.05 7.77-2.79 10.46-12.28a1.61 1.61 0 0 1 1.07.11c.48.38.21 1.29.21 1.29-3.22 11.58-10.94 12.17-12 13.46-.91 4.18-.59 7.61-2.52 19.36s-11.27 7.88-12.23 7.13c-6.49-5.84-.21-19.95 8.53-25.52a18.75 18.75 0 0 0 .43-4c-7.67 1.18-10.35-1.29-11.42-4.56-2.88-10.26 2.35-16.22 5.67-18.58 7.13-4.83 15.71.75 12.6 8 .05.54-.86.8-1.56-.05.8-6.6-1.72-7.24-4.07-7.51-6.38.1-11.42 21.92-.8 20.64zm-1.18 9.12s-10.13 9.48-8.31 18.65c1 2.52 3.91 3.11 4.61 2.25 3.75-4.02 3.43-19.24 3.7-20.91zM87.5 63.38c-2.68-6.22-2.15-20.64 7.77-20.64 2 .11 5.52-.11 6 3.91.16 6.7-6 9.17-8.15 8.79.21 8.53 3.11 7.94 4.4 8.74 1.29.54 7.19-.27 11.58-13.94 0 0 .86-.16 1 .11a2.1 2.1 0 0 1 .16 1.18c-5.44 20.47-20.61 15.92-22.76 11.85zm5.42-9.92c2.63-.21 5.25-.8 5.9-5.9-.16-3.11-2.2-3.16-3.11-2.52-1.61 1.96-2.26 4.02-2.79 8.42zM155.81 74.8c1.61 1.07 7.83-.21 12.81-24.72 0 0 1.07-.21 1.23.05a3.84 3.84 0 0 1 .43 1.13c-6.43 32.74-16.67 27.02-18.54 25.74-5.31-4.61-.48-29.92.05-33.67.32-2.47-.8-.43-1.23 0-4.13 7.61-6.76 16.68-7.94 19.25a3.79 3.79 0 0 0-.64 2c-.43 1.45-1.18 2.15-2.36 1.18-1.61-1.18-3.48-2.9-3.48-4.93-.43-4.4 2.36-15.44 1.77-16-1.39-.32-6.49 8.26-7 12.12s-2.47 4.13-3.43 3.59c-3.49-3.38-3-14.64-1.56-19.25.54-2 2-2 3.65-.86 2.31 1.29 2.52 2.79 2.09 4-.43 2.36-1 7.51-1 7.94 3-6 4.5-7.61 6-9.22a2.11 2.11 0 0 1 2.84-.27c5.36 2.63 2.73 12.06 3.16 12.6 0-.43 5.2-12.17 7.77-15.17 2.68-2.63 7.83 2 7.45 6.43-1.21 7.52-3.36 25.86-2.07 28.06zM185.57 54.42c1.29.86 7.08.91 8.85-4.18 0 0 .21-.86 1.18-.27.7.43.27 1.39.27 1.39-2.95 6.7-10.19 5.09-10.88 5-2.36 8.69-6.38 9.92-10.19 10.4-4.83.32-6.43-6.11-6.7-9.12-.59-6.92 1.93-13.3 5.47-12.65a4.59 4.59 0 0 1 3.06-5.15c2.36-1.18 7-.21 8.63 4.4.95 3.05 1.86 5.68.31 10.18zm-11.48-8.52c0 .43 1.39 3.27 1.18 3.91-.43 2.31-1 12.81 2.47 13.73 2-.32 4-3.16 5.68-7.67-2.14-.38-6.86-4.56-9.33-9.97zm9.91 7.56c1.29-6.54-1-9.33-1.93-10.78-1.34-1.77-4.77-3.11-5.09 1.07.02 3.25 3.81 8.25 7.02 9.71zM194.89 54.58c-5-11.74-2.25-14.64.54-16.35 5.42-3.32 8.69 2.84 4.08 10.78 1.23 3.11 5.68 10.13 6.17 10.94.59-.27 6.22-2.31 10.56-9.71a1 1 0 0 1 1.23-.16c.7.43.16 1.29.16 1.29-3.48 6.81-9 9.38-10.88 11a18.2 18.2 0 0 1 2.25 7.82c1 8.79-7.67 9.17-9.92 8.85-4-.54-12.92-5.52.38-15-1.03-2.76-3.76-7.69-4.57-9.46zm5.42 11.85c-10.67 5.79-4.45 10.29 0 10.62 5.69.43 1.5-6.97 0-10.62zm-1.88-19.89c1.23-2.68 1.29-2.79 1.07-5-.54-3.06-1.72-1.82-2.36-1.34-1.14 2.59.65 4.8 1.29 6.34zM223.42 62.95c4.45 0 6.54-7.72 6.27-11.26.21-6.43 1.34-5.52 2.36-5.15 1.23.43 3.91 2.73 4 4.18-.21 4.07-1.61 13.08.75 18.34 2 3.43 7.45-2.95 10-18.61 0 0 1-.16 1.23.11a2.35 2.35 0 0 1 .38 1.13c-4 22.41-11.8 20.54-12.71 20.38-5.84-1.18-5.74-12.17-5.79-12.6-3.43 7.45-9.6 7.4-11.69 5-3.86-4.83-1.5-18.82-.8-22 1-2.68 3.43-2.95 5.63-1.07a5.67 5.67 0 0 1 1.18 2.68c-2.1 15.38-1.23 18.65-.81 18.87zM273.12 50.45s.38-.64 1.23-.05c.64.38.38 1.39.38 1.39-3.16 20.64-7.45 22.68-9.65 23.86-3.81 2-7.45.27-8.58-1.72-3.54-6.22-.7-16 .16-19-4.24 1.39-8-.11-9.71-2.09-1.66-3.11-2.95-5.25-1.93-9 1.23-3.49 4.24-4.5 6.11-2.95 2.95 2.47-.11 6.27-1.5 9.33 1.18 3.27 6.92 2.36 8.63 1.07 2.25-1.39 5-.43 4.83 2.47-.09 4.36-.59 5.24-1.09 9.19-1.39 10.35 1.45 10.62 1.45 10.62 5.92.96 9.67-23.12 9.67-23.12zm-25-1.88c1.45-3.38 2.36-4.18 1.93-5.74 0 0-.8-1.77-2.36.05a5.72 5.72 0 0 0 .39 5.7zM290.65 49.81s.86-.05 1 .11a3.7 3.7 0 0 1 .32 1.39c-2.2 17.59-8.26 24.34-15.71 22.41-6.06-1.82-2.9-24.61-2.57-25.84.38-1.5 2.2-2.47 3.32-1.77 2.52 1.61 3.06 3.54 2.73 4.77a130.8 130.8 0 0 0-1.53 16.12c-.32 6.78 8.69 8.49 12.44-17.19zm-9.38-10.81c-.27 1-.21 2.52-.7 3.06s-4.24-.38-4.29-.91c-1.88-3.49.32-4.83.32-4.83 1.24.19 4.45 1.05 4.67 2.68zM323.9 51.58c-5.47 29-13.4 26.17-14.8 23.91-4-4.08-4.4-15.5-4-19.25 0-3 3.38-14.75.43-12.71-4.45 3.91-8.1 15.07-8.63 16 1 3.54-.05 4.18-.86 4.34-4.13.64-4.45-1.88-4.88-3.32-1.18-5.15-.48-11.53.7-16.51 0-1 1.66-1.45 2.2-1 2 1.18 3.91 2.14 3.48 4.5a59.51 59.51 0 0 0-.8 7.45c2.57-7.51 5.74-11 7.45-12.71 2.47-2.47 7.72.75 8.31 4.24.43 4.13-.32 8.31-.75 11.31-1.72 10-.05 14 .38 14.42 1.07 1.18 4.56 3.22 10.35-22a4.47 4.47 0 0 1 1.07.27 2.82 2.82 0 0 1 .35 1.06zM328.77 63.7c3.11-2.9 5-4.07 9.28-13.57 0 0 1 .21 1.07.43a2.62 2.62 0 0 1 .16 1.13c-3.32 8.85-7.45 11.9-10.46 14.37-.11 14.37-2.25 18.12-3.65 21.61-4.4 9.54-10.62 5.52-11.53 4.13-5.09-9.65 7.88-23.91 8.53-25.68.43-6.54.38-16.51.38-23.27.43-3 1.5-2.63 3.11-1.45 1.61 1 3.54 2.2 3.54 3.81-.43 4.01-.43 14.47-.43 18.49zm-6.54 5.58s-12.55 16.57-5.68 22.14c5.14 4.18 5.68-19.79 5.68-22.15zm5.63-32.12s-.86.54-3.86-.43a5 5 0 0 1-.43-5.79c.43-.43 4.45.59 5 .59 1.11 1.28-.71 5.63-.71 5.63zM355 54.42c1.29.86 7.08.91 8.85-4.18 0 0 .21-.86 1.18-.27.7.43.27 1.39.27 1.39-2.95 6.7-10.19 5.09-10.88 5-2.42 8.64-6.42 9.91-10.21 10.39-4.83.32-6.43-6.11-6.7-9.12-.59-6.92 1.93-13.3 5.47-12.65a4.59 4.59 0 0 1 3.02-5.14c2.36-1.18 7-.21 8.63 4.4 1 3.05 1.92 5.68.37 10.18zm-11.48-8.52c0 .43 1.39 3.27 1.18 3.91-.43 2.31-1 12.81 2.47 13.73 2-.32 4-3.16 5.68-7.67-2.15-.38-6.85-4.56-9.33-9.97zm9.92 7.56c1.29-6.54-1-9.33-1.93-10.78-1.34-1.77-4.77-3.11-5.09 1.07-.01 3.25 3.8 8.25 7.02 9.71zM426.57 51.58c-5.47 29-13.4 26.17-14.8 23.91-4-4.08-4.4-15.5-4-19.25 0-3 3.38-14.75.43-12.71-4.45 3.91-8.1 15.07-8.63 16 1 3.54-.05 4.18-.86 4.34-4.13.64-4.45-1.88-4.88-3.32-1.18-5.15-.48-11.53.7-16.51 0-1 1.66-1.45 2.2-1 2 1.18 3.91 2.14 3.48 4.5a59.51 59.51 0 0 0-.8 7.45c2.57-7.51 5.74-11 7.45-12.71 2.47-2.47 7.72.75 8.31 4.24.43 4.13-.32 8.31-.75 11.31-1.72 10-.05 14 .38 14.42 1.07 1.18 4.56 3.22 10.35-22a4.47 4.47 0 0 1 1.07.27 2.83 2.83 0 0 1 .35 1.06zM394.51 50.51c-.11-.27-1.13-.38-1.13-.38-3.16 33.87-12.38 30.94-11.15 23.22-.27-5.31 2.63-10.78.7-18.07-.59-2.2-7.4-8.9-13.08 7.24-.05-2.41-.33-9.27-.65-11.69 0-.63.09-2 .28-3.8h.14a19 19 0 0 0 2.95-.32c4.63-1.2 10.14-7 10.9-17.33.75-8.15-5-17.32-11-9.87-1 1.34-3.54 3.54-6.6 15.39a71.39 71.39 0 0 0-1.54 8.71c-.32-.09-.64-.2-1-.32a15.84 15.84 0 0 1-2.33-1.07 16.88 16.88 0 0 1-4.16-3.4c-.62-.67-1.11-1.37-1.68-2.08a16.94 16.94 0 0 1-2.4-4.09 8.43 8.43 0 0 1-.59-3.31 7.94 7.94 0 0 1 .1-1l.05-.34-.1.33a8.05 8.05 0 0 0-.24.95 8.85 8.85 0 0 0 .12 3.52 17.92 17.92 0 0 0 1.9 4.66 11.77 11.77 0 0 0 .72 1.19 14.28 14.28 0 0 0 .84 1.18 18.75 18.75 0 0 0 4.37 4.17 18 18 0 0 0 2.57 1.43 13 13 0 0 0 1.31.53l.34.11a168.53 168.53 0 0 0 .5 22.32c.05 2.09 2.25 2.73 3.7 3.59 1.34.64 2.47-1.07 2-4-.05-5.15 3.7-11.9 6.27-13.19.27-.64 1.66-.43 1.45 3.86-.8 5.47-2.68 19.62 1.23 21.66.75.27 12.33 7.35 15.6-28.58a4.2 4.2 0 0 0-.39-1.22zm-18.29-29.76c.64-1.07 5.74-3.27 5.31 8.74-.61 9.21-5.14 12.69-9.26 14.59a8.09 8.09 0 0 1-2.47.15c.89-6.72 2.84-16.82 6.42-23.48z"/></svg>