<?xml version="1.0" encoding="utf-8"?>
<!-- Generator: Adobe Illustrator 21.0.2, SVG Export Plug-In . SVG Version: 6.00 Build 0)  -->
<svg version="1.1" id="Layer_1" xmlns="http://www.w3.org/2000/svg" xmlns:xlink="http://www.w3.org/1999/xlink" x="0px" y="0px"
	 width="435px" height="105.3px" viewBox="0 0 435 105.3" style="enable-background:new 0 0 435 105.3;" xml:space="preserve">
<style type="text/css">
	.st0{fill:#024626;}
</style>
<title>wordmark</title>
<g>
	<path class="st0" d="M109.1,50.2c-4.4,13.7-10.3,14.5-11.6,13.9c-1.3-0.8-4.2-0.2-4.4-8.7c2.2,0.4,8.3-2.1,8.2-8.8
		c-0.4-4-4-3.8-6-3.9c-4.9,0-7.5,3.5-8.6,7.8c-2.7,9.3-10,12-10.4,12c0-1.6,0.1-3.2,0.3-4.8c0.7-2.7-0.9-3.9-2.7-5.4
		c-1.1-0.9-1.8-0.8-2.2,0.4s0,1.7-1.1,7.2c-10.6,1.3-5.6-20.5,0.8-20.6c2.4,0.3,4.9,0.9,4.1,7.5c0.7,0.9,1.6,0.6,1.6,0
		c3.1-7.2-5.5-12.8-12.6-8c-3.1,2.2-7.8,7.5-6.2,16.4c-2.3,6.7-5.6,11.3-8,12.8c-0.6,0.4-2.6,1-1.3-8.6c0.5-1.6-0.4-3.1-1.9-4.2
		c-1-1-2.4-0.4-3.3,4.1c-0.4,2.4-2.9,5.6-4.7,5.7C37.5,65,38,50.9,43.8,45.2c0,0,2.2-1.7,2.7,7.1l1.3-0.6c0.4-1.8-1.8-11.8-8.9-8.6
		c-1.9,0.9-3.7,3.6-4.9,7c-0.1,0-0.1,0.1-0.2,0.2c-4.3,7.4-10,9.4-10.6,9.7c-0.5-0.8-4.9-7.8-6.2-10.9c4.6-7.9,1.3-14.1-4.1-10.8
		c-2.8,1.7-5.6,4.6-0.5,16.3c0.8,1.8,3.5,6.7,4.6,9.4c-13.3,9.5-4.3,14.5-0.4,15c2.2,0.3,10.9-0.1,9.9-8.8c-0.1-2.7-0.9-5.4-2.2-7.8
		c1.5-1.2,5.1-3.1,8.2-6.9c-1,5.7-0.4,11.4,3.2,12c1,0.5,4.4,0.8,7.7-3.2c0.5,1.2,0.9,8.8,6.4,6.4c1.2-1.2,5.5-1.9,9.3-12
		c1.3,2.7,4.2,4.5,11,3.5c0,1.3-0.1,2.7-0.4,4c-8.7,5.6-15,19.7-8.5,25.5c1,0.8,10.3,4.6,12.2-7.1s1.6-15.2,2.5-19.4
		c0.9-1.1,6.4-1.7,10.1-8.5c0.1,2.3,0.5,4.6,1.4,6.8c2.1,4.1,17.3,8.6,22.7-11.8c0.1-0.4,0-0.8-0.2-1.2
		C109.9,50.1,109.1,50.2,109.1,50.2z M16.1,46.5c-0.6-1.5-2.4-3.8-1.3-6.3c0.6-0.5,1.8-1.7,2.4,1.3C17.4,43.8,17.3,43.9,16.1,46.5
		L16.1,46.5z M18,77c-4.4-0.3-10.7-4.8,0-10.6C19.5,70.1,23.6,77.5,18,77z M65.8,90c-0.7,0.9-3.7,0.3-4.6-2.2
		c-1.8-9.2,8.3-18.7,8.3-18.7C69.3,70.8,69.6,86,65.8,90z M95.7,45c0.9-0.6,2.9-0.6,3.1,2.5c-0.6,5.1-3.3,5.7-5.9,5.9
		C93.4,49.1,94.1,47,95.7,45z"/>
	<path class="st0" d="M280.6,42c0.5-0.5,0.4-2,0.7-3.1c-0.2-1.6-3.4-2.5-4.7-2.7c0,0-2.2,1.3-0.3,4.8
		C276.3,41.7,280.2,42.5,280.6,42z"/>
	<path class="st0" d="M327.9,37.2c0,0,1.8-4.3,0.7-5.6c-0.5,0-4.6-1-5-0.6c-1.1,1.8-0.9,4.1,0.4,5.8C327,37.7,327.9,37.2,327.9,37.2
		z"/>
	<path class="st0" d="M426.2,50.5c-0.3-0.1-0.7-0.2-1.1-0.3c-5.8,25.2-9.3,23.2-10.4,22c-0.4-0.4-2.1-4.4-0.4-14.4
		c0.4-3,1.2-7.2,0.8-11.3c-0.6-3.5-5.8-6.7-8.3-4.2c-1.7,1.7-4.9,5.2-7.5,12.7c0.1-2.5,0.4-5,0.8-7.5c0.4-2.4-1.5-3.3-3.5-4.5
		c-0.5-0.4-2.2,0-2.2,1c-0.5,2-0.8,4-1,6.1h-0.1C390.2,84,381,81.1,382.2,73.3c-0.3-5.3,2.6-10.8,0.7-18.1
		c-0.6-2.2-7.4-8.9-13.1,7.2c0-2.4-0.3-9.3-0.6-11.7c0-0.6,0.1-2,0.3-3.8h0.1c1,0,2-0.1,3-0.3c4.6-1.2,10.1-7,10.9-17.3
		c0.8-8.1-5-17.3-11-9.9c-1,1.3-3.5,3.5-6.6,15.4c-0.7,2.9-1.2,5.8-1.5,8.7c-0.3-0.1-0.6-0.2-1-0.3c-0.8-0.3-1.6-0.7-2.3-1.1
		c-1.6-0.9-3-2.1-4.2-3.4c-0.6-0.7-1.1-1.4-1.7-2.1c-0.6-0.7-1.2-1.6-1.6-2.5l0,0c0,0,8-7.9-7.9-24c-0.3-0.3-0.7-0.3-1-0.1
		c-0.1,0.1-0.2,0.3-0.2,0.4c-4.4,19.7,4.8,23.1,8.1,23.6c0.4,1.1,0.9,2.2,1.5,3.3c0.2,0.4,0.5,0.8,0.7,1.2c0.3,0.4,0.5,0.8,0.8,1.2
		c1.2,1.6,2.7,3,4.4,4.1c0.8,0.5,1.7,1,2.6,1.4c0.4,0.2,0.9,0.4,1.3,0.5l0.3,0.1c-0.1,1.2-0.1,2.5-0.2,3.9c-0.1,0.1-0.1,0.2-0.1,0.3
		c-1.8,5.1-7.6,5-8.9,4.2c1.6-4.5,0.6-7.1-0.3-10.2c-1.6-4.6-6.3-5.6-8.6-4.4c-2.1,0.7-3.4,2.9-3,5.2c-2.1-0.4-3.9,1.8-4.9,5.2h-0.1
		c-4.2,9.5-6.2,10.7-9.3,13.6c0-4,0-14.5,0.4-18.5c0-1.6-1.9-2.8-3.5-3.8c-1.6-1.2-2.7-1.5-3.1,1.5c0,2.2,0,4.8,0,7.4l0,0
		c-5.8,25.2-9.3,23.2-10.4,22c-0.4-0.4-2.1-4.4-0.4-14.4c0.4-3,1.2-7.2,0.8-11.3c-0.6-3.5-5.8-6.7-8.3-4.2c-1.8,1.7-5,5.2-7.5,12.7
		c0.1-2.5,0.4-5,0.8-7.5c0.4-2.4-1.5-3.3-3.5-4.5c-0.5-0.4-2.2,0-2.2,1c-0.4,1.9-0.8,3.8-1,5.7h-0.2c-3.8,25.7-12.8,24-12.4,17.2
		c0.2-5.4,0.7-10.8,1.5-16.1c0.3-1.2-0.2-3.2-2.7-4.8c-1.1-0.7-3,0.3-3.3,1.8c-0.1,0.2-0.2,1.1-0.4,2.4c-0.1,0-0.1,0.1-0.2,0.2
		c0,0-3.8,24.1-9.7,23.1c0,0-2.8-0.3-1.5-10.6c0.5-3.9,1.1-4.8,1.1-9.2c0.2-2.9-2.6-3.9-4.8-2.5c-1.7,1.3-7.4,2.2-8.6-1.1
		c1.4-3.1,4.4-6.9,1.5-9.3c-1.9-1.6-4.9-0.5-6.1,3c-0.9,3.4,0.1,5.5,1.5,8.3c-2.7,14.4-7.8,20.2-9.7,16.9c-2.4-5.2-1-14.3-0.8-18.3
		c-0.1-1.5-2.8-3.8-4-4.2c-1-0.4-2.1-1.3-2.4,5.2c0.3,3.5-1.8,11.3-6.3,11.3c-0.4-0.2-1.3-3.5,0.9-18.9c-0.2-1-0.6-1.9-1.2-2.7
		c-2.2-1.9-4.7-1.6-5.6,1.1c-0.5,2.5-0.9,5.1-1.1,7.7l-0.1,0.1c-4.3,7.4-10,9.4-10.6,9.7c-0.5-0.8-4.9-7.8-6.2-10.9
		c4.6-7.9,1.3-14.1-4.1-10.8c-2.5,1.6-5.1,4.1-1.7,13.4c-2.2,3.7-7,3.5-8.2,2.8c1.6-4.5,0.6-7.1-0.3-10.2c-1.6-4.6-6.3-5.6-8.6-4.4
		c-2.2,0.7-3.5,2.9-3.1,5.2c-2.1-0.4-3.9,1.8-4.8,5.1h-0.1c-5,24.5-11.2,25.8-12.8,24.7c-1.3-2.2,0.9-20.5,2-28
		c0.4-4.4-4.8-9.1-7.4-6.4c-2.6,3-7.8,14.8-7.8,15.2c-0.4-0.5,2.2-10-3.2-12.6c-0.9-0.7-2.1-0.5-2.8,0.3c-1.4,1.6-2.9,3.3-6,9.2
		c0-0.4,0.5-5.6,1-7.9c0.4-1.2,0.2-2.7-2.1-4c-1.6-1.2-3.1-1.2-3.7,0.9c-1.4,4.6-1.9,15.9,1.6,19.2c1,0.5,2.8,0.2,3.4-3.6
		s5.6-12.4,7-12.1c0.6,0.5-2.2,11.6-1.8,16c0,2,1.9,3.8,3.5,4.9c1.2,1,1.9,0.3,2.4-1.2c0-0.7,0.2-1.4,0.6-2
		c1.2-2.6,3.8-11.6,7.9-19.2c0.4-0.4,1.6-2.5,1.2,0c-0.5,3.8-5.4,29.1-0.1,33.7c1.7,1.2,10.3,6,16.6-17.5c0.7,3.2,2.5,7.5,6.4,7.2
		c3.8-0.5,7.8-1.7,10.2-10.4c0.6,0.1,6.1,1.3,9.5-2.8c0.1,0.3,0.2,0.6,0.4,1c0.8,1.8,3.5,6.7,4.6,9.4c-13.3,9.5-4.3,14.5-0.4,15
		c2.2,0.3,10.9-0.1,9.9-8.8c-0.1-2.7-0.9-5.4-2.2-7.8c1.7-1.4,6-3.5,9.4-8.5c-0.1,4.2,0.4,8.4,2.1,10.6c2.1,2.4,8.3,2.4,11.7-5
		c0.1,0.4-0.1,11.4,5.8,12.6c0.9,0.2,8.2,1.9,12.3-18.2c2.6,1.7,5.8,2.1,8.7,1c-0.9,3-3.7,12.8-0.2,19c1.1,2,4.8,3.7,8.6,1.7
		c1.7-0.9,4.7-2.4,7.5-12.9c0.1,5.3,1,10.2,3.7,11c6.4,1.7,11.8-3.1,14.5-15.6c0.1,0.8,0.2,1.7,0.4,2.5c0.4,1.5,0.8,4,4.9,3.3
		c0.8-0.2,1.8-0.8,0.9-4.3c0.5-1,4.2-12.1,8.6-16c3-2-0.4,9.7-0.4,12.7c-0.4,3.8,0,15.2,4,19.3c1.3,2.1,8,4.6,13.4-17.3
		c0,2.9-0.1,5.6-0.3,7.9c-0.6,1.8-13.6,16-8.5,25.7c0.9,1.4,7.1,5.4,11.5-4.1c1.4-3.5,3.5-7.2,3.6-21.6c3.6-2.7,6.6-6.1,8.6-10.2
		c0,0.6,0,1.2,0.1,1.8c0.3,3,1.9,9.4,6.7,9.1c3.8-0.6,7.8-1.9,10.2-10.5c0.6,0.1,6.2,1.3,9.6-2.8c0,3.9,0.2,8.8,0.7,14.8
		c0,2.1,2.2,2.7,3.7,3.6c1.3,0.6,2.5-1.1,2-4c0-5.2,3.7-11.9,6.3-13.2c0.3-0.6,1.7-0.4,1.5,3.9c-0.8,5.5-2.7,19.6,1.2,21.7
		c0.7,0.2,10.3,6.1,14.5-19.9c0,0.1,0,0.2,0,0.2c0.4,1.5,0.8,4,4.9,3.3c0.8-0.2,1.8-0.8,0.9-4.3c0.5-1,4.2-12.1,8.6-16
		c3-2-0.4,9.7-0.4,12.7c-0.4,3.8,0,15.2,4,19.2c1.4,2.2,9.3,5,14.8-23.9C426.5,51.2,426.4,50.9,426.2,50.5z M376.2,20.7
		c0.6-1.1,5.7-3.3,5.3,8.7c-0.6,9.2-5.1,12.7-9.3,14.6c-0.8,0.2-1.6,0.2-2.5,0.2C370.7,37.5,372.6,27.4,376.2,20.7L376.2,20.7z
		 M350,29.6c-0.2-0.2-0.5-0.5-0.7-0.8c-0.2-0.3-0.5-0.6-0.7-1c-0.4-0.7-0.8-1.5-1.1-2.3c-0.1-0.4-0.3-0.8-0.4-1.2
		c-0.1-0.4-0.1-0.8-0.2-1.2c-0.1-0.4-0.1-0.8-0.1-1.1c0-0.3,0-0.7,0-1c0-0.5,0.1-1,0.2-1.5c0.1-0.4,0.1-0.6,0.1-0.6s0.1,0.2,0.1,0.6
		c0,0.2,0.1,0.4,0.1,0.6s0.1,0.5,0.2,0.8c0.1,0.6,0.3,1.3,0.5,2l0.3,1.1c0.1,0.4,0.2,0.8,0.4,1.1c0.3,0.7,0.6,1.5,0.9,2.1
		s0.6,1.3,0.9,1.8c0.5,1.1,1,1.8,1,1.8C351,30.6,350.5,30.2,350,29.6z M177.7,63.5c-3.4-0.9-2.9-11.4-2.5-13.7
		c0.2-0.6-1.2-3.5-1.2-3.9c2.5,5.4,7.2,9.6,9.3,10C181.7,60.4,179.7,63.2,177.7,63.5z M184,53.5c-3.2-1.5-7-6.4-7-9.7
		c0.3-4.2,3.8-2.8,5.1-1.1C183,44.1,185.3,46.9,184,53.5z M198.4,46.5c-0.6-1.5-2.4-3.8-1.3-6.3c0.6-0.5,1.8-1.7,2.4,1.3
		C199.7,43.8,199.7,43.9,198.4,46.5L198.4,46.5z M200.3,77c-4.4-0.3-10.7-4.8,0-10.6C201.8,70.1,206,77.5,200.3,77z M247.6,42.8
		c1.6-1.8,2.4,0,2.4,0c0.4,1.6-0.5,2.4-1.9,5.7C247,46.9,246.8,44.7,247.6,42.8L247.6,42.8z M316.5,91.4c-6.9-5.6,5.7-22.1,5.7-22.1
		C322.2,71.6,321.7,95.6,316.5,91.4L316.5,91.4z M347.2,63.5c-3.4-0.9-2.9-11.4-2.5-13.7c0.2-0.6-1.2-3.5-1.2-3.9
		c2.5,5.4,7.2,9.6,9.3,10C351.1,60.4,349.1,63.2,347.2,63.5L347.2,63.5z M353.4,53.4c-3.2-1.5-7-6.4-7-9.7c0.3-4.2,3.8-2.8,5.1-1.1
		C352.5,44.1,354.7,46.9,353.4,53.4L353.4,53.4z"/>
</g>
</svg>
