<svg xmlns="http://www.w3.org/2000/svg" width="435" height="93.68" viewBox="0 0 435 93.68"><defs><style>.cls-1 { fill: #f7c241; } .cls-2 { fill: #fff; } .cls-3, .cls-4, .cls-5 { fill: none; stroke: #fff; stroke-miterlimit: 10; } .cls-3 { stroke-width: 0.61px; } .cls-4 { stroke-width: 0.5px; } .cls-5 { stroke-width: 0.47px; }</style></defs><title>wordmark</title><path class="cls-1" d="M25.19 25.27q0 1.44-2.09 2.52a1.55 1.55 0 0 1-1.22.07q-1-.29-1.08-.29a1.25 1.25 0 0 0-.86.43 12.93 12.93 0 0 0-3.94 9.51 11.38 11.38 0 0 0 .65 3.89q.29.79 5.47 11.16 3.46 6.91 3.46 11.74a16.11 16.11 0 0 1-1.94 7.63 11.76 11.76 0 0 1-3.24 3.17 6.64 6.64 0 0 1-3.74 1.51 3.45 3.45 0 0 1-1.22-.22q-2.16-.94-2.16-2.38a3.48 3.48 0 0 1 1.08-2.09 2 2 0 0 1 1.37-.43 1.55 1.55 0 0 0 1.44-.86 14.89 14.89 0 0 0 1.51-6.48q0-4.68-4.64-13.57t-4.62-14.22a17.31 17.31 0 0 1 1.73-7.85 11.83 11.83 0 0 1 5.54-5.69 7.48 7.48 0 0 1 3.24-.82 5.84 5.84 0 0 1 4.54 1.66 2.38 2.38 0 0 1 .72 1.61zM55.72 65.37a5.87 5.87 0 0 1 .43 2 3.27 3.27 0 0 1-1.22 2.52q-1.22 1.08-1.66 1-3.53-.65-4.46-5.69a55.59 55.59 0 0 0-2.38-9.14l-4.9.43a8.17 8.17 0 0 0-4.39 1.73 81.23 81.23 0 0 0-2.09 7.92 52.68 52.68 0 0 1-2.38 8q-.58 1.3-2.45.72-2.38-.79-2.52-2.16a17.71 17.71 0 0 1 1.58-7.34 31.4 31.4 0 0 0 2.38-7.49q.07-.65-.94-1.44t-1-1.22a1.22 1.22 0 0 1 .32-.76 2.8 2.8 0 0 1 1.51-.65q1.19-.25 1.33-.76 1.3-3.6 4.1-13.39a122.91 122.91 0 0 1 4.25-13 1.75 1.75 0 0 1 1.8-1 2.77 2.77 0 0 1 1.8.65 8.37 8.37 0 0 1 2.59 5.18q.43 3 .79 5.9a228.59 228.59 0 0 0 7.51 27.99zm-10.51-13.75a46.1 46.1 0 0 0-.94-6q-.72-2.88-1.37-5.76-2.16 6-3.74 12a47.45 47.45 0 0 1 6.05-.24zM84.3 50.83a40.91 40.91 0 0 0-2.52 11.88q-.36 6.12-.65 12.24-.15 1.8-2.38 1.8a3.46 3.46 0 0 1-1.22-.22 4.79 4.79 0 0 1-3.1-4.82 24.2 24.2 0 0 1 .29-3.06 24.32 24.32 0 0 0 .29-3q.29-2.09.72-6.26a32.68 32.68 0 0 1-11.23 7 5.42 5.42 0 0 1-1.73.29q-3.31 0-6.12-3.74a8.33 8.33 0 0 1-1.58-5.18 20.72 20.72 0 0 1 1.22-6.41 79.33 79.33 0 0 1 12.17-22.84q4.18-5.51 7.42-5.51 2.88 0 3.24 2.16a2.25 2.25 0 0 1-1.22 2.59q-2.52 1.37-2.66 1.51a71.54 71.54 0 0 0-11.1 17.25 28 28 0 0 0-3.14 11.74q0 .94.07 1.87a1.8 1.8 0 0 1 .43.68q.29.61.79.4 4.75-1.87 14.33-9.86a8.33 8.33 0 0 0 1.71-3.34 2.63 2.63 0 0 1 2.59-2q-.58 0 1.15-.14.86-.14 1.15.29a6.45 6.45 0 0 1 1.37 3.31 3.7 3.7 0 0 1-.29 1.37zM113.82 32.83a77.49 77.49 0 0 1-7.82 2.52 77.78 77.78 0 0 0-7.85 2.52q-.65 1.87-.94 8.35a7.56 7.56 0 0 0 2.66.43 24.43 24.43 0 0 0 3.38-.36 24.61 24.61 0 0 1 3.38-.36 6.6 6.6 0 0 1 3.46.86 5 5 0 0 1 1 1.87.88.88 0 0 1-.5.79 8.47 8.47 0 0 0-1 1 1.65 1.65 0 0 1-1.44.58 30.36 30.36 0 0 1-5.54.43 16 16 0 0 0-5.4.86 36.08 36.08 0 0 0-1.37 8.42 7.87 7.87 0 0 0 .58 3.31q3.38 2.38 11.74 2a2 2 0 0 0 1.22-.54 1.88 1.88 0 0 1 1.08-.54q2-.43 2.66 3a2.86 2.86 0 0 1-.4 2.12 2.13 2.13 0 0 1-1.76 1 53.78 53.78 0 0 1-15.12-1.37 7.63 7.63 0 0 1-3.67-2.23 6.44 6.44 0 0 1-1.87-3.89 48.66 48.66 0 0 1 0-11.23q-2-1.37-1.8-2.66.07-.65 1.12-1.19t1.19-1.12q.14-.58.58-6.84-4-.79-4-3t2.52-3.31l4.61-1.87a36.29 36.29 0 0 1 6.77-2.38q3.46-.93 7-1.8a4.51 4.51 0 0 1 .86-.07 9.34 9.34 0 0 1 4.54 1.51q.07.29.36 1.08a3.92 3.92 0 0 1 .29 1.15 1.1 1.1 0 0 1-.52.96zM168.9 70.05q.29 1.44-2.09 1.58a4.67 4.67 0 0 1-3.24-1.37 8.31 8.31 0 0 1-2.16-4 30.77 30.77 0 0 1-.86-7.13 54.8 54.8 0 0 0-.5-7.13q-.94 3.24-3.1 9.65-1.3 3.53-1.58 4-1.15 2.23-2.88 2a8.13 8.13 0 0 1-5.33-3.89 24.13 24.13 0 0 1-2.3-6.41 38.43 38.43 0 0 0-1.95-6.35q-3.1 15-6.62 22.46-.5 1.08-3-.14a3.14 3.14 0 0 1-2.09-2.88 25.13 25.13 0 0 1 1.51-4.61q.65-1.73 5-16.63 1.53-5.2 3.18-18.2a8.84 8.84 0 0 0 .72-1.51 1.31 1.31 0 0 1 1.3-1 4.76 4.76 0 0 1 3.38.94 52.16 52.16 0 0 0 .68 6.73 52.65 52.65 0 0 1 .68 7q.65 4 1.22 8.14a18.3 18.3 0 0 0 2.88 7.56q6.91-19.22 8.78-30.38.29-1.15 2.16-1.15 2.66 0 3 1.73a31.66 31.66 0 0 1 .5 6q0 1.08-.14 4.68-.07 3 0 4.9a160.1 160.1 0 0 0 2.85 25.41zM196.91 53.28q-4.25 9.58-12 11.38a8.34 8.34 0 0 1-1.87.22q-4.1 0-8.28-4.46a11.08 11.08 0 0 1-2.81-7.85 25.06 25.06 0 0 1 3.17-11.45 17.42 17.42 0 0 1 3.31-4.46q2.23-2.23 4.25-2.23a3.27 3.27 0 0 1 2.16.86q1 .86 5.4 2.3a8.14 8.14 0 0 1 4.9 3.89 18.62 18.62 0 0 1 2.52 8.28 8.44 8.44 0 0 1-.75 3.52zm-5.76-4.46q-.5-5.25-2.81-6.26a1.78 1.78 0 0 0-.65-.14q-.86 0-2.16 1.44a6.92 6.92 0 0 1-2.23 1.94q-.5.22-1.44-.43a3.26 3.26 0 0 0-1.22-.65.49.49 0 0 0-.36.14q-2.52 2.16-2.52 6.7a9.25 9.25 0 0 0 1.44 5.26q2 3 3.38 3 3.17 0 6.12-4 2.81-3.76 2.45-7.01zM215.48 25.27q0 1.44-2.09 2.52a1.55 1.55 0 0 1-1.22.07q-1-.29-1.08-.29a1.25 1.25 0 0 0-.86.43 12.93 12.93 0 0 0-3.89 9.5 11.38 11.38 0 0 0 .66 3.9q.29.79 5.47 11.16 3.46 6.91 3.46 11.74a16.11 16.11 0 0 1-1.93 7.63 11.76 11.76 0 0 1-3.24 3.17 6.64 6.64 0 0 1-3.76 1.51 3.45 3.45 0 0 1-1.22-.22q-2.16-.94-2.16-2.38a3.48 3.48 0 0 1 1.08-2.09 2 2 0 0 1 1.37-.43 1.55 1.55 0 0 0 1.44-.86 14.89 14.89 0 0 0 1.49-6.48q0-4.68-4.64-13.57t-4.64-14.22a17.31 17.31 0 0 1 1.73-7.85 11.83 11.83 0 0 1 5.55-5.69 7.48 7.48 0 0 1 3.24-.79 5.84 5.84 0 0 1 4.54 1.66 2.38 2.38 0 0 1 .7 1.58zM245.94 29.59a83.08 83.08 0 0 1-2.88 13.46q-3.24 11.3-3.74 13.68a34 34 0 0 1-6 13.25q-2.81 3.82-6.48 3.74-3.24-.07-4.82-4.1a42.29 42.29 0 0 1-2.74-15.91 116.39 116.39 0 0 1 1-13.54 33.58 33.58 0 0 1-.07-4.46q0-4.46 3.46-4.46a3.62 3.62 0 0 1 1.55.4q.83.4 1.62.83.07 3.67-.22 10.8-.36 7.63-.36 11 0 3.6.22 6.55a42.71 42.71 0 0 0 1.3 5.76 23.84 23.84 0 0 0 4.75-9q.57-1.87 2.3-10.22a46.24 46.24 0 0 1 3.1-9.94 13.67 13.67 0 0 0 .86-3.82 14.77 14.77 0 0 1 .86-3.89 2.78 2.78 0 0 1 2.69-1.72 4 4 0 0 1 3.6 1.59zM277.4 69.33a1 1 0 0 1 .22.65q0 1.66-3.46 2.52a84.93 84.93 0 0 1-9.5-9.07q-6.34-6.84-9.43-9.5-.22 1.87-.79 9.79a50.48 50.48 0 0 1-1.3 9.5 3.78 3.78 0 0 0-.9.36 1.83 1.83 0 0 1-1.26.22q-3.17-.72-3.17-4.39a19.15 19.15 0 0 1 .29-2.88l.36-2.59q.29-4.17.36-9.94v-7.85a105.9 105.9 0 0 1 1.08-16.49q.72-4.46 8.42-4.1 3.89.15 6.77 3.89a12 12 0 0 1 2.66 7.49 11.3 11.3 0 0 1-2.52 6.77 15.76 15.76 0 0 1-5.33 4.75q-1.3.72-1.3 1.58t1.51 2.23l2.3 1.87 7.92 7.2a36.62 36.62 0 0 1 7.07 7.99zm-15.19-32.33a9.93 9.93 0 0 0 .14-2.3 5.31 5.31 0 0 0-1.26-2.7 4.17 4.17 0 0 0-3.35-1.22q-1.73 0-2.16 1.08a21 21 0 0 0-.36 4.1q0 .94.22 4.82a40.06 40.06 0 0 1 0 4.82q5.98-4.49 6.77-8.6zM284.12 32.58q.14 2.09.14 4.32 0 4.9-1 14.76t-1 14.9q0 1.87.07 3.67a2.59 2.59 0 0 1-2.81 1.94q-3.1-.15-3.38-2.66a46.88 46.88 0 0 1-.29-5.33 131.86 131.86 0 0 1 1.15-14.61 131.71 131.71 0 0 0 1.21-14.57q0-1.87-.14-3.67a2.54 2.54 0 0 1 2.45-1.33 5.42 5.42 0 0 1 2.74.79.87.87 0 0 1 .43-.22c.14 0 .22.24.22.72a3.08 3.08 0 0 0 0 1 .46.46 0 0 0 .21.29zM316.43 25.2q-1 9.65-1.94 19.37a187.46 187.46 0 0 0-1.22 19.22q0 2.52.14 5a2.48 2.48 0 0 1-.83 2 2.88 2.88 0 0 1-2.05.86q-2.23 0-3.74-3-4.61-9-11.45-28.22c-.1-.29-.22-.43-.36-.43q-.5 0-.65 1a183.51 183.51 0 0 0-1.22 21.67q0 5.47.29 11.16a3 3 0 0 1-1.22 2.88 1.52 1.52 0 0 1-1.08.5 2.9 2.9 0 0 1-1.3-.43l-1.37-.65q-.94-.29-1.15-1.73-.07-1.15-.14-2.38-.22-4-.22-8.42 0-7.63.86-19.08 1.37-17.42 1.51-19.3.07-1.58 2.66-1.58 1.22-.14 3.6 1.8a111.63 111.63 0 0 1 5.69 14.26 98.47 98.47 0 0 0 5.9 14.3q1.08-9.57 3.38-28.94.22-1.44 2.09-1.44a6.34 6.34 0 0 1 1.51.22l1.37.36a1.51 1.51 0 0 1 .94 1zM317 82.58a5.14 5.14 0 0 1-2.13.39 6.66 6.66 0 0 1-3.71-1q-2.29-1.58-2.29-3.16 0-1.74 2-1.74a5.46 5.46 0 0 1 1.26.24 2.92 2.92 0 0 0 1.26.24c2.12-.77 6.84-2.79 9.89-14.52.82-3.16 1.13-10.12.76-14.65q-.24-2.52-.95-7.65a1.79 1.79 0 0 1 .47-1.58 1.73 1.73 0 0 1 1.66-.55 11.88 11.88 0 0 1 2.76.24 5.25 5.25 0 0 1 2.37 3.95q.24 2.53.39 5.05c.61 5.44.08 30.48-13.74 34.74zM361.21 53.28q-4.25 9.58-12 11.38a8.34 8.34 0 0 1-1.87.22q-4.1 0-8.28-4.46a11.08 11.08 0 0 1-2.81-7.85 25.06 25.06 0 0 1 3.17-11.45 17.42 17.42 0 0 1 3.31-4.46q2.23-2.23 4.25-2.23a3.27 3.27 0 0 1 2.16.86q1 .86 5.4 2.3a8.14 8.14 0 0 1 4.9 3.89 18.62 18.62 0 0 1 2.52 8.28 8.44 8.44 0 0 1-.75 3.52zm-5.76-4.46q-.5-5.25-2.81-6.26a1.78 1.78 0 0 0-.65-.14q-.86 0-2.16 1.44a6.92 6.92 0 0 1-2.23 1.94q-.5.22-1.44-.43a3.26 3.26 0 0 0-1.22-.65.49.49 0 0 0-.36.14q-2.52 2.16-2.52 6.7a9.25 9.25 0 0 0 1.44 5.26q2 3 3.38 3 3.17 0 6.12-4 2.81-3.76 2.45-7.01zM389.07 28.58a196.51 196.51 0 0 1-2.07 20.31 161.16 161.16 0 0 0-1.8 20.23q0 2.23.14 4.25a1.43 1.43 0 0 1-.43 1 1.33 1.33 0 0 1-1 .47 6.39 6.39 0 0 1-2.66-.36q-2.74-1.58-2.74-6 0-.86.11-2.7t.11-2.7a39.87 39.87 0 0 1 .36-4.39 40.42 40.42 0 0 0 .36-4.54 10.81 10.81 0 0 1-2.77-.29 14.56 14.56 0 0 0-2.56-.36 5.67 5.67 0 0 0-1.8.29q-1.73 5.69-2 16.78a5.34 5.34 0 0 1-4.75-.22q-1.66-.86-1.66-3.46a14.71 14.71 0 0 1 .11-1.55q.11-1 .11-1.19.22-3.89 1.66-15.41a117.06 117.06 0 0 0 1.15-15.34q0-.79 1.12-1t1.26-.43a4.09 4.09 0 0 0 2.09.86 1.94 1.94 0 0 1 1.66 1.3 13.21 13.21 0 0 1 .58 4 41.44 41.44 0 0 1-.47 5 41.53 41.53 0 0 0-.47 5.22 4.32 4.32 0 0 0 2.16.79 12.33 12.33 0 0 0 2.45.07q2.09-.14 2.52-.14a171 171 0 0 0 3.16-19.55q.29-2.52 1.8-2.52 3.77-.36 4.27 1.58zM424.13 25.2q-1 9.65-1.94 19.37a187.46 187.46 0 0 0-1.19 19.22q0 2.52.14 5a2.48 2.48 0 0 1-.83 2 2.88 2.88 0 0 1-2.05.86q-2.23 0-3.74-3-4.61-9-11.45-28.22c-.1-.29-.22-.43-.36-.43q-.5 0-.65 1a183.51 183.51 0 0 0-1.22 21.67q0 5.47.29 11.16a3 3 0 0 1-1.22 2.88 1.52 1.52 0 0 1-1.08.5 2.9 2.9 0 0 1-1.3-.43l-1.37-.65q-.94-.29-1.15-1.73-.07-1.15-.14-2.38-.22-4-.22-8.42 0-7.63.86-19.08 1.37-17.42 1.51-19.3.07-1.58 2.66-1.58 1.22-.14 3.6 1.8a111.63 111.63 0 0 1 5.69 14.26 98.47 98.47 0 0 0 5.88 14.3q1.08-9.57 3.38-28.94.22-1.44 2.09-1.44a6.34 6.34 0 0 1 1.51.22l1.37.36a1.51 1.51 0 0 1 .93 1zM326.47 34a1.57 1.57 0 0 0 1.43-.06c1.74-1 5.76-4.14 4.59-13a39.57 39.57 0 0 0-2.07-8.19 1.63 1.63 0 0 0-3-.21c-3 5.64-8.42 17.84-.95 21.46z"/><path class="cls-2" d="M328.51 11.3s.1.39.22 1.07.3 1.66.44 2.84a52.12 52.12 0 0 1 .33 8.71 34.44 34.44 0 0 1-.55 4.66 18 18 0 0 1-1.19 3.94 8.61 8.61 0 0 1-.76 1.48 6.17 6.17 0 0 1-.81 1 3.21 3.21 0 0 1-.63.52l-.23.16a6.54 6.54 0 0 0 .68-.84 5.84 5.84 0 0 0 .59-1.06 13.15 13.15 0 0 0 .54-1.47 37.37 37.37 0 0 0 1.18-8.42c.16-3.11.17-6.25.19-8.61v-3.98z"/><path class="cls-3" d="M328.47 27.12c4.22-.62 5.47-9.47 5-9.9"/><path class="cls-4" d="M327.48 32.12c6-.62 7.78-9.47 7.06-9.9"/><path class="cls-3" d="M328.47 19.17c4.06-.07 5.31-9.3 5-9.9"/><path class="cls-5" d="M327.85 30.93c-3.56-.36-4.84-10.69-4.56-10.72M328.83 23.33c-4.19.07-4.41-10.91-4-11.08"/></svg>