<svg id="Layer_1" data-name="Layer 1" xmlns="http://www.w3.org/2000/svg" width="435" height="105.31" viewBox="0 0 435 105.31">
  <defs>
    <style>
      .cls-1 {
        fill: #f7c241;
      }
    </style>
  </defs>
  <title>wordmark</title>
  <g>
    <path class="cls-1" d="M109.06,50.24c-4.4,13.67-10.29,14.48-11.58,13.94-1.29-.8-4.18-.21-4.4-8.74,2.2.38,8.31-2.09,8.15-8.79-.43-4-4-3.81-6-3.91-4.87,0-7.47,3.48-8.55,7.75-2.74,9.29-10,12-10.38,12a43.3,43.3,0,0,1,.32-4.77c.7-2.68-.91-3.91-2.68-5.36-1.07-.86-1.77-.8-2.2.43s0,1.72-1.07,7.19c-10.62,1.29-5.58-20.54.8-20.64,2.36.27,4.88.91,4.07,7.51.7.86,1.61.59,1.56.05,3.11-7.24-5.47-12.81-12.6-8-3.08,2.19-7.82,7.47-6.18,16.44-2.34,6.74-5.57,11.31-8,12.78-.64.38-2.57,1-1.34-8.58.54-1.61-.43-3.11-1.93-4.24-1-1-2.41-.38-3.27,4.13-.43,2.36-2.9,5.58-4.72,5.68C37.53,65,38,50.94,43.81,45.2c0,0,2.25-1.66,2.73,7.13l1.34-.64c.38-1.82-1.77-11.8-8.9-8.58-1.9.86-3.65,3.61-4.9,7a1.08,1.08,0,0,0-.2.16c-4.34,7.4-10,9.44-10.56,9.71-.48-.8-4.93-7.83-6.17-10.94,4.61-7.94,1.34-14.1-4.08-10.78-2.79,1.72-5.58,4.61-.54,16.35.8,1.77,3.54,6.7,4.56,9.44-13.3,9.49-4.34,14.48-.38,15,2.25.32,10.94-.05,9.92-8.85a18.2,18.2,0,0,0-2.25-7.83c1.49-1.24,5.07-3.06,8.24-6.94-1,5.74-.41,11.41,3.24,12,1,.54,4.4.75,7.72-3.22.54,1.18.91,8.85,6.38,6.43,1.21-1.21,5.48-1.9,9.35-12,1.32,2.69,4.2,4.49,11,3.45a18.75,18.75,0,0,1-.43,4c-8.74,5.58-15,19.68-8.53,25.52,1,.75,10.29,4.61,12.23-7.13s1.61-15.17,2.52-19.36c.89-1.07,6.38-1.66,10.06-8.5a19.77,19.77,0,0,0,1.36,6.78c2.14,4.08,17.32,8.63,22.73-11.85a2.1,2.1,0,0,0-.16-1.18C109.92,50.08,109.06,50.24,109.06,50.24Zm-93-3.7c-.64-1.55-2.41-3.75-1.29-6.33.64-.48,1.82-1.72,2.36,1.34C17.37,43.75,17.32,43.86,16.09,46.54ZM18,77c-4.45-.32-10.67-4.83,0-10.62C19.46,70.08,23.65,77.48,18,77ZM65.84,90c-.7.86-3.65.27-4.61-2.25-1.82-9.17,8.31-18.66,8.31-18.66C69.27,70.78,69.59,86,65.84,90ZM95.71,45c.91-.64,2.95-.59,3.11,2.52-.64,5.09-3.27,5.68-5.9,5.9C93.45,49.06,94.1,47,95.71,45Z"/>
    <path class="cls-1" d="M280.57,42c.48-.54.43-2,.7-3.06-.21-1.61-3.43-2.47-4.67-2.68,0,0-2.2,1.34-.32,4.83C276.34,41.66,280.2,42.52,280.57,42Z"/>
    <path class="cls-1" d="M327.86,37.16s1.82-4.34.7-5.63c-.54,0-4.56-1-5-.59a5,5,0,0,0,.43,5.79C327,37.69,327.86,37.16,327.86,37.16Z"/>
    <path class="cls-1" d="M426.25,50.51a4.47,4.47,0,0,0-1.07-.27c-5.79,25.25-9.28,23.22-10.35,22-.43-.43-2.09-4.4-.37-14.42.43-3,1.18-7.19.75-11.31-.59-3.48-5.84-6.7-8.31-4.24C405.17,44,402,47.5,399.44,55a59.51,59.51,0,0,1,.8-7.45c.43-2.36-1.45-3.32-3.48-4.5-.54-.43-2.2.05-2.2,1a50.53,50.53,0,0,0-1.05,6.08l-.13,0C390.22,84,381,81.07,382.23,73.35c-.27-5.31,2.63-10.78.7-18.07-.59-2.2-7.4-8.9-13.08,7.24-.05-2.41-.33-9.27-.65-11.69,0-.63.09-2,.28-3.8h.14a19,19,0,0,0,2.95-.32c4.63-1.2,10.14-7,10.9-17.33.75-8.15-5-17.32-11-9.87-1,1.34-3.54,3.54-6.6,15.39a71.39,71.39,0,0,0-1.54,8.71c-.32-.09-.64-.2-1-.32A15.84,15.84,0,0,1,361,42.22a16.88,16.88,0,0,1-4.16-3.4c-.62-.67-1.11-1.43-1.68-2.14a11.63,11.63,0,0,1-1.59-2.46h0s8-7.89-7.89-24a.74.74,0,0,0-1.29.37c-4.4,19.71,4.84,23.06,8.09,23.62A20.89,20.89,0,0,0,354,37.49a11.81,11.81,0,0,0,.72,1.2,14.31,14.31,0,0,0,.84,1.18A18.74,18.74,0,0,0,359.93,44a18,18,0,0,0,2.57,1.43,13,13,0,0,0,1.31.53l.34.11c-.07,1.17-.13,2.47-.16,3.92a.82.82,0,0,0-.15.27c-1.77,5.09-7.56,5-8.85,4.18,1.56-4.5.64-7.13-.32-10.19-1.61-4.61-6.27-5.58-8.63-4.4A4.59,4.59,0,0,0,343,45c-2.15-.39-3.92,1.82-4.85,5.17l-.08,0c-4.24,9.49-6.17,10.67-9.28,13.57,0-4,0-14.48.43-18.5,0-1.61-1.93-2.84-3.54-3.81-1.61-1.18-2.68-1.55-3.11,1.45,0,2.2,0,4.75,0,7.41h0c-5.79,25.25-9.28,23.22-10.35,22-.43-.43-2.09-4.4-.37-14.42.43-3,1.18-7.19.75-11.31-.59-3.48-5.84-6.7-8.31-4.24C302.5,44,299.34,47.5,296.76,55a59.51,59.51,0,0,1,.8-7.45c.43-2.36-1.45-3.32-3.48-4.5-.54-.43-2.2.05-2.2,1a50.76,50.76,0,0,0-1,5.73h-.23c-3.75,25.68-12.76,24-12.44,17.21a130.8,130.8,0,0,1,1.5-16.14c.32-1.23-.21-3.16-2.73-4.77-1.13-.7-2.95.27-3.32,1.77-.06.22-.2,1.1-.36,2.4a.66.66,0,0,0-.17.18s-3.75,24.08-9.71,23.11c0,0-2.84-.27-1.45-10.62.54-3.91,1.07-4.83,1.13-9.17.21-2.9-2.57-3.86-4.83-2.47-1.72,1.29-7.45,2.2-8.63-1.07,1.39-3.06,4.45-6.86,1.5-9.33-1.88-1.56-4.88-.54-6.11,2.95-.93,3.44.08,5.54,1.53,8.26-2.67,14.44-7.77,20.24-9.73,16.94-2.36-5.25-1-14.26-.75-18.34-.11-1.45-2.79-3.75-4-4.18-1-.37-2.14-1.29-2.36,5.15.27,3.54-1.82,11.26-6.27,11.26-.43-.21-1.29-3.49.86-18.87a5.67,5.67,0,0,0-1.18-2.68c-2.2-1.88-4.67-1.61-5.63,1.07a68.7,68.7,0,0,0-1.12,7.68l-.11.1c-4.34,7.4-10,9.44-10.56,9.71-.48-.8-4.93-7.83-6.17-10.94,4.61-7.94,1.34-14.1-4.08-10.78-2.54,1.56-5.05,4.12-1.69,13.42-2.25,3.66-7,3.55-8.17,2.78,1.56-4.5.64-7.13-.32-10.19-1.61-4.61-6.27-5.58-8.63-4.4A4.59,4.59,0,0,0,173.56,45c-2.13-.39-3.89,1.78-4.82,5.08l-.11,0c-5,24.5-11.21,25.79-12.81,24.72-1.29-2.2.86-20.54,2-28,.38-4.4-4.77-9.06-7.45-6.43-2.57,3-7.77,14.75-7.77,15.17-.43-.54,2.2-10-3.16-12.6a2.11,2.11,0,0,0-2.84.27c-1.45,1.61-2.95,3.27-6,9.22,0-.43.54-5.58,1-7.94.43-1.18.21-2.68-2.09-4-1.61-1.18-3.11-1.18-3.65.86-1.45,4.61-1.93,15.87,1.56,19.25,1,.54,2.84.21,3.43-3.59s5.63-12.44,7-12.12c.59.54-2.2,11.58-1.77,16,0,2,1.88,3.75,3.48,4.93,1.18,1,1.93.27,2.36-1.18a3.79,3.79,0,0,1,.64-2c1.18-2.57,3.81-11.64,7.94-19.25.43-.43,1.56-2.47,1.23,0-.54,3.75-5.36,29.06-.05,33.67,1.7,1.17,10.26,6,16.64-17.46.67,3.2,2.46,7.48,6.41,7.22,3.81-.48,7.83-1.72,10.19-10.4.61.09,6.14,1.31,9.52-2.75.13.33.25.64.4,1,.8,1.77,3.54,6.7,4.56,9.44-13.3,9.49-4.34,14.48-.38,15,2.25.32,10.94-.05,9.92-8.85a18.2,18.2,0,0,0-2.25-7.83c1.67-1.39,6-3.51,9.38-8.47-.1,4.18.36,8.38,2.14,10.62,2.09,2.36,8.26,2.41,11.69-5,.05.43-.05,11.42,5.79,12.6.88.16,8.17,1.91,12.29-18.2A9.6,9.6,0,0,0,256.66,55c-.86,3-3.7,12.76-.16,19,1.13,2,4.77,3.7,8.58,1.72,1.72-.93,4.74-2.38,7.48-12.94.12,5.31,1,10.2,3.67,11,6.4,1.66,11.77-3.1,14.55-15.62a22.92,22.92,0,0,0,.4,2.48c.43,1.45.75,4,4.88,3.32.8-.16,1.82-.8.86-4.34.54-1,4.18-12.12,8.63-16,2.95-2-.43,9.71-.43,12.71-.43,3.75-.05,15.17,4,19.25,1.28,2.06,8,4.56,13.38-17.31-.05,2.87-.15,5.62-.3,7.93-.64,1.77-13.62,16-8.53,25.68.91,1.39,7.13,5.42,11.53-4.13,1.39-3.49,3.54-7.24,3.65-21.61a28.57,28.57,0,0,0,8.61-10.16c0,.58,0,1.16.08,1.75.27,3,1.88,9.44,6.7,9.12C348,66.27,352,65,354.4,56.35c.61.09,6.19,1.33,9.57-2.81,0,3.93.23,8.78.67,14.82.05,2.09,2.25,2.73,3.7,3.59,1.34.64,2.47-1.07,2-4-.05-5.15,3.7-11.9,6.27-13.19.27-.64,1.66-.43,1.45,3.86-.8,5.47-2.68,19.63,1.23,21.66.68.24,10.34,6.13,14.54-19.93,0,.08,0,.17,0,.25.43,1.45.75,4,4.88,3.32.8-.16,1.82-.8.86-4.34.54-1,4.18-12.12,8.63-16,2.95-2-.43,9.71-.43,12.71-.43,3.75-.05,15.17,4,19.25,1.39,2.25,9.33,5,14.8-23.91A2.83,2.83,0,0,0,426.25,50.51Zm-50-29.76c.64-1.07,5.74-3.27,5.31,8.74-.61,9.21-5.14,12.69-9.26,14.59a8.09,8.09,0,0,1-2.47.15C370.69,37.51,372.64,27.41,376.22,20.75ZM350,29.61a9,9,0,0,1-.68-.78,9.84,9.84,0,0,1-.66-.95,11.44,11.44,0,0,1-1.1-2.26,12.55,12.55,0,0,1-.37-1.22c-.11-.41-.15-.82-.23-1.22a10.43,10.43,0,0,1-.09-1.15,6.7,6.7,0,0,1,0-1,7.47,7.47,0,0,1,.23-1.51c.08-.36.15-.56.15-.56s.06.21.14.56c0,.18.09.4.13.65s.13.52.19.81c.12.58.31,1.26.5,2l.33,1.09c.14.36.23.75.38,1.11.27.74.56,1.47.86,2.14s.61,1.3.89,1.84c.55,1.07,1,1.81,1,1.81A6.67,6.67,0,0,1,350,29.61ZM177.74,63.54c-3.43-.91-2.9-11.42-2.47-13.73.21-.64-1.18-3.49-1.18-3.91,2.47,5.42,7.19,9.6,9.33,10C181.71,60.37,179.72,63.21,177.74,63.54ZM184,53.46c-3.22-1.5-7-6.43-7-9.71.32-4.18,3.75-2.84,5.09-1.07C183,44.13,185.3,46.91,184,53.46Zm14.42-6.92c-.64-1.55-2.41-3.75-1.29-6.33.64-.48,1.82-1.72,2.36,1.34C199.72,43.75,199.67,43.86,198.43,46.54ZM200.31,77c-4.45-.32-10.67-4.83,0-10.62C201.81,70.08,206,77.48,200.31,77Zm47.34-34.16c1.55-1.82,2.36-.05,2.36-.05.43,1.56-.48,2.36-1.93,5.74A5.72,5.72,0,0,1,247.65,42.89Zm68.9,48.53c-6.86-5.58,5.68-22.14,5.68-22.14C322.23,71.63,321.69,95.6,316.55,91.42Zm30.62-27.88c-3.43-.91-2.9-11.42-2.47-13.73.21-.64-1.18-3.49-1.18-3.91,2.47,5.42,7.19,9.6,9.33,10C351.13,60.37,349.15,63.21,347.16,63.54Zm6.27-10.08c-3.22-1.5-7-6.43-7-9.71.32-4.18,3.75-2.84,5.09-1.07C352.47,44.13,354.72,46.91,353.44,53.46Z"/>
  </g>
</svg>
